<svg xmlns="http://www.w3.org/2000/svg" class="main-svg" width="1920" height="1080" style="" viewBox="0 0 1920 1080"><rect x="0" y="0" width="1920" height="1080" style="fill: rgb(0, 0, 0); fill-opacity: 0;" /><defs id="defs-b9b2a3"><g class="clips"></g><g class="gradients" /><g class="patterns" /></defs><g class="bglayer"><rect class="bg" x="80" y="100" width="1663" height="900" style="fill: rgb(0, 0, 0); fill-opacity: 0; stroke-width: 0;" /></g><g class="layer-below"><g class="imagelayer" /><g class="shapelayer" /></g><g class="cartesianlayer"><g class="subplot xy"><g class="layer-subplot"><g class="shapelayer" /><g class="imagelayer" /></g><g class="minor-gridlayer"><g class="x" /><g class="y" /></g><g class="gridlayer"><g class="x" /><g class="y"><path class="ygrid crisp" transform="translate(0,885.38)" d="M80,0h1663" style="stroke: rgb(235, 240, 248); stroke-opacity: 1; stroke-width: 1px;" /><path class="ygrid crisp" transform="translate(0,792.87)" d="M80,0h1663" style="stroke: rgb(235, 240, 248); stroke-opacity: 1; stroke-width: 1px;" /><path class="ygrid crisp" transform="translate(0,700.36)" d="M80,0h1663" style="stroke: rgb(235, 240, 248); stroke-opacity: 1; stroke-width: 1px;" /><path class="ygrid crisp" transform="translate(0,607.8399999999999)" d="M80,0h1663" style="stroke: rgb(235, 240, 248); stroke-opacity: 1; stroke-width: 1px;" /><path class="ygrid crisp" transform="translate(0,515.3299999999999)" d="M80,0h1663" style="stroke: rgb(235, 240, 248); stroke-opacity: 1; stroke-width: 1px;" /><path class="ygrid crisp" transform="translate(0,422.82)" d="M80,0h1663" style="stroke: rgb(235, 240, 248); stroke-opacity: 1; stroke-width: 1px;" /><path class="ygrid crisp" transform="translate(0,330.3)" d="M80,0h1663" style="stroke: rgb(235, 240, 248); stroke-opacity: 1; stroke-width: 1px;" /><path class="ygrid crisp" transform="translate(0,237.79)" d="M80,0h1663" style="stroke: rgb(235, 240, 248); stroke-opacity: 1; stroke-width: 1px;" /><path class="ygrid crisp" transform="translate(0,145.28)" d="M80,0h1663" style="stroke: rgb(235, 240, 248); stroke-opacity: 1; stroke-width: 1px;" /></g></g><g class="zerolinelayer"><path class="yzl zl crisp" transform="translate(0,977.9)" d="M80,0h1663" style="stroke: rgb(235, 240, 248); stroke-opacity: 1; stroke-width: 2px;" /></g><g class="layer-between"><g class="shapelayer" /><g class="imagelayer" /></g><path class="xlines-below" /><path class="ylines-below" /><g class="overlines-below" /><g class="xaxislayer-below" /><g class="yaxislayer-below" /><g class="overaxes-below" /><g class="overplot"><g class="xy" transform="translate(80,100)"><g class="boxlayer mlayer"><g class="trace boxes" style="opacity: 0;"><path class="box" d="M42.41,760.82H123.89M42.41,786.23H123.89V656.06H42.41ZM83.15,786.23V801.76M83.15,656.06V529.4M62.78,801.76H103.52M62.78,529.4H103.52" style="vector-effect: none; stroke-width: 2px; stroke: rgb(85, 85, 92); stroke-opacity: 1; fill: rgb(85, 85, 92); fill-opacity: 0.5;" /><g class="points" /></g><g class="trace boxes" style="opacity: 0;"><path class="box" d="M208.71,740.54H290.19M208.71,812.26H290.19V686.67H208.71ZM249.45,812.26V828.68M249.45,686.67V504.7M229.08,828.68H269.82M229.08,504.7H269.82" style="vector-effect: none; stroke-width: 2px; stroke: rgb(88, 67, 36); stroke-opacity: 1; fill: rgb(88, 67, 36); fill-opacity: 0.5;" /><g class="points"><path class="point" transform="translate(249.45,479.3)" d="M3,0A3,3 0 1,1 0,-3A3,3 0 0,1 3,0Z" style="opacity: 1; stroke-width: 0px; fill: rgb(88, 67, 36); fill-opacity: 1;" /></g></g><g class="trace boxes" style="opacity: 0;"><path class="box" d="M375.01,709.01H456.49M375.01,760.08H456.49V623.79H375.01ZM415.75,760.08V855M415.75,623.79V422.64M395.38,855H436.12M395.38,422.64H436.12" style="vector-effect: none; stroke-width: 2px; stroke: rgb(195, 158, 109); stroke-opacity: 1; fill: rgb(195, 158, 109); fill-opacity: 0.5;" /><g class="points"><path class="point" transform="translate(415.75,418.24)" d="M3,0A3,3 0 1,1 0,-3A3,3 0 0,1 3,0Z" style="opacity: 1; stroke-width: 0px; fill: rgb(195, 158, 109); fill-opacity: 1;" /><path class="point" transform="translate(415.75,405.94)" d="M3,0A3,3 0 1,1 0,-3A3,3 0 0,1 3,0Z" style="opacity: 1; stroke-width: 0px; fill: rgb(195, 158, 109); fill-opacity: 1;" /><path class="point" transform="translate(415.75,391.65)" d="M3,0A3,3 0 1,1 0,-3A3,3 0 0,1 3,0Z" style="opacity: 1; stroke-width: 0px; fill: rgb(195, 158, 109); fill-opacity: 1;" /><path class="point" transform="translate(415.75,374.81)" d="M3,0A3,3 0 1,1 0,-3A3,3 0 0,1 3,0Z" style="opacity: 1; stroke-width: 0px; fill: rgb(195, 158, 109); fill-opacity: 1;" /><path class="point" transform="translate(415.75,373.28)" d="M3,0A3,3 0 1,1 0,-3A3,3 0 0,1 3,0Z" style="opacity: 1; stroke-width: 0px; fill: rgb(195, 158, 109); fill-opacity: 1;" /><path class="point" transform="translate(415.75,353.02)" d="M3,0A3,3 0 1,1 0,-3A3,3 0 0,1 3,0Z" style="opacity: 1; stroke-width: 0px; fill: rgb(195, 158, 109); fill-opacity: 1;" /><path class="point" transform="translate(415.75,350.39)" d="M3,0A3,3 0 1,1 0,-3A3,3 0 0,1 3,0Z" style="opacity: 1; stroke-width: 0px; fill: rgb(195, 158, 109); fill-opacity: 1;" /><path class="point" transform="translate(415.75,339.24)" d="M3,0A3,3 0 1,1 0,-3A3,3 0 0,1 3,0Z" style="opacity: 1; stroke-width: 0px; fill: rgb(195, 158, 109); fill-opacity: 1;" /><path class="point" transform="translate(415.75,280.12)" d="M3,0A3,3 0 1,1 0,-3A3,3 0 0,1 3,0Z" style="opacity: 1; stroke-width: 0px; fill: rgb(195, 158, 109); fill-opacity: 1;" /><path class="point" transform="translate(415.75,246.59)" d="M3,0A3,3 0 1,1 0,-3A3,3 0 0,1 3,0Z" style="opacity: 1; stroke-width: 0px; fill: rgb(195, 158, 109); fill-opacity: 1;" /></g></g><g class="trace boxes" style="opacity: 0;"><path class="box" d="M541.31,668.59H622.79M541.31,703.83H622.79V609.42H541.31ZM582.05,703.83V794.59M582.05,609.42V488.83M561.68,794.59H602.42M561.68,488.83H602.42" style="vector-effect: none; stroke-width: 2px; stroke: rgb(138, 138, 144); stroke-opacity: 1; fill: rgb(138, 138, 144); fill-opacity: 0.5;" /><g class="points"><path class="point" transform="translate(582.05,446.83)" d="M3,0A3,3 0 1,1 0,-3A3,3 0 0,1 3,0Z" style="opacity: 1; stroke-width: 0px; fill: rgb(138, 138, 144); fill-opacity: 1;" /><path class="point" transform="translate(582.05,431.24)" d="M3,0A3,3 0 1,1 0,-3A3,3 0 0,1 3,0Z" style="opacity: 1; stroke-width: 0px; fill: rgb(138, 138, 144); fill-opacity: 1;" /><path class="point" transform="translate(582.05,384.29)" d="M3,0A3,3 0 1,1 0,-3A3,3 0 0,1 3,0Z" style="opacity: 1; stroke-width: 0px; fill: rgb(138, 138, 144); fill-opacity: 1;" /><path class="point" transform="translate(582.05,341.37)" d="M3,0A3,3 0 1,1 0,-3A3,3 0 0,1 3,0Z" style="opacity: 1; stroke-width: 0px; fill: rgb(138, 138, 144); fill-opacity: 1;" /><path class="point" transform="translate(582.05,306.3)" d="M3,0A3,3 0 1,1 0,-3A3,3 0 0,1 3,0Z" style="opacity: 1; stroke-width: 0px; fill: rgb(138, 138, 144); fill-opacity: 1;" /><path class="point" transform="translate(582.05,255.7)" d="M3,0A3,3 0 1,1 0,-3A3,3 0 0,1 3,0Z" style="opacity: 1; stroke-width: 0px; fill: rgb(138, 138, 144); fill-opacity: 1;" /></g></g><g class="trace boxes" style="opacity: 0;"><path class="box" d="M707.61,658.92H789.09M707.61,700.6H789.09V599.25H707.61ZM748.35,700.6V815.17M748.35,599.25V456.5M727.98,815.17H768.72M727.98,456.5H768.72" style="vector-effect: none; stroke-width: 2px; stroke: rgb(150, 115, 62); stroke-opacity: 1; fill: rgb(150, 115, 62); fill-opacity: 0.5;" /><g class="points"><path class="point" transform="translate(748.35,445.07)" d="M3,0A3,3 0 1,1 0,-3A3,3 0 0,1 3,0Z" style="opacity: 1; stroke-width: 0px; fill: rgb(150, 115, 62); fill-opacity: 1;" /><path class="point" transform="translate(748.35,436.89)" d="M3,0A3,3 0 1,1 0,-3A3,3 0 0,1 3,0Z" style="opacity: 1; stroke-width: 0px; fill: rgb(150, 115, 62); fill-opacity: 1;" /><path class="point" transform="translate(748.35,423.56)" d="M3,0A3,3 0 1,1 0,-3A3,3 0 0,1 3,0Z" style="opacity: 1; stroke-width: 0px; fill: rgb(150, 115, 62); fill-opacity: 1;" /><path class="point" transform="translate(748.35,414.27)" d="M3,0A3,3 0 1,1 0,-3A3,3 0 0,1 3,0Z" style="opacity: 1; stroke-width: 0px; fill: rgb(150, 115, 62); fill-opacity: 1;" /><path class="point" transform="translate(748.35,402.7)" d="M3,0A3,3 0 1,1 0,-3A3,3 0 0,1 3,0Z" style="opacity: 1; stroke-width: 0px; fill: rgb(150, 115, 62); fill-opacity: 1;" /><path class="point" transform="translate(748.35,396.64)" d="M3,0A3,3 0 1,1 0,-3A3,3 0 0,1 3,0Z" style="opacity: 1; stroke-width: 0px; fill: rgb(150, 115, 62); fill-opacity: 1;" /><path class="point" transform="translate(748.35,369.68)" d="M3,0A3,3 0 1,1 0,-3A3,3 0 0,1 3,0Z" style="opacity: 1; stroke-width: 0px; fill: rgb(150, 115, 62); fill-opacity: 1;" /><path class="point" transform="translate(748.35,365.1)" d="M3,0A3,3 0 1,1 0,-3A3,3 0 0,1 3,0Z" style="opacity: 1; stroke-width: 0px; fill: rgb(150, 115, 62); fill-opacity: 1;" /><path class="point" transform="translate(748.35,348.03)" d="M3,0A3,3 0 1,1 0,-3A3,3 0 0,1 3,0Z" style="opacity: 1; stroke-width: 0px; fill: rgb(150, 115, 62); fill-opacity: 1;" /><path class="point" transform="translate(748.35,152.32)" d="M3,0A3,3 0 1,1 0,-3A3,3 0 0,1 3,0Z" style="opacity: 1; stroke-width: 0px; fill: rgb(150, 115, 62); fill-opacity: 1;" /></g></g><g class="trace boxes" style="opacity: 0;"><path class="box" d="M873.91,656.86H955.39M873.91,702.72H955.39V601.05H873.91ZM914.65,702.72V810.45M914.65,601.05V465.29M894.28,810.45H935.02M894.28,465.29H935.02" style="vector-effect: none; stroke-width: 2px; stroke: rgb(122, 93, 49); stroke-opacity: 1; fill: rgb(122, 93, 49); fill-opacity: 0.5;" /><g class="points"><path class="point" transform="translate(914.65,443.78)" d="M3,0A3,3 0 1,1 0,-3A3,3 0 0,1 3,0Z" style="opacity: 1; stroke-width: 0px; fill: rgb(122, 93, 49); fill-opacity: 1;" /><path class="point" transform="translate(914.65,440.63)" d="M3,0A3,3 0 1,1 0,-3A3,3 0 0,1 3,0Z" style="opacity: 1; stroke-width: 0px; fill: rgb(122, 93, 49); fill-opacity: 1;" /><path class="point" transform="translate(914.65,439.89)" d="M3,0A3,3 0 1,1 0,-3A3,3 0 0,1 3,0Z" style="opacity: 1; stroke-width: 0px; fill: rgb(122, 93, 49); fill-opacity: 1;" /><path class="point" transform="translate(914.65,435.41)" d="M3,0A3,3 0 1,1 0,-3A3,3 0 0,1 3,0Z" style="opacity: 1; stroke-width: 0px; fill: rgb(122, 93, 49); fill-opacity: 1;" /><path class="point" transform="translate(914.65,396.5)" d="M3,0A3,3 0 1,1 0,-3A3,3 0 0,1 3,0Z" style="opacity: 1; stroke-width: 0px; fill: rgb(122, 93, 49); fill-opacity: 1;" /><path class="point" transform="translate(914.65,385.22)" d="M3,0A3,3 0 1,1 0,-3A3,3 0 0,1 3,0Z" style="opacity: 1; stroke-width: 0px; fill: rgb(122, 93, 49); fill-opacity: 1;" /><path class="point" transform="translate(914.65,373.75)" d="M3,0A3,3 0 1,1 0,-3A3,3 0 0,1 3,0Z" style="opacity: 1; stroke-width: 0px; fill: rgb(122, 93, 49); fill-opacity: 1;" /></g></g><g class="trace boxes" style="opacity: 0;"><path class="box" d="M1040.21,633.5H1121.69M1040.21,701.06H1121.69V529.24H1040.21ZM1080.95,701.06V828.91M1080.95,529.24V298.76M1060.58,828.91H1101.32M1060.58,298.76H1101.32" style="vector-effect: none; stroke-width: 2px; stroke: rgb(201, 201, 206); stroke-opacity: 1; fill: rgb(201, 201, 206); fill-opacity: 0.5;" /><g class="points" /></g><g class="trace boxes" style="opacity: 0;"><path class="box" d="M1206.51,618.95H1287.99M1206.51,687.39H1287.99V547.93H1206.51ZM1247.25,687.39V810.73M1247.25,547.93V347.66M1226.88,810.73H1267.62M1226.88,347.66H1267.62" style="vector-effect: none; stroke-width: 2px; stroke: rgb(166, 166, 172); stroke-opacity: 1; fill: rgb(166, 166, 172); fill-opacity: 0.5;" /><g class="points" /></g><g class="trace boxes" style="opacity: 0;"><path class="box" d="M1372.81,595.43H1454.29M1372.81,643.49H1454.29V506.62H1372.81ZM1413.55,643.49V788.44M1413.55,506.62V304.27M1393.18,788.44H1433.92M1393.18,304.27H1433.92" style="vector-effect: none; stroke-width: 2px; stroke: rgb(173, 138, 85); stroke-opacity: 1; fill: rgb(173, 138, 85); fill-opacity: 0.5;" /><g class="points"><path class="point" transform="translate(1413.55,293.54)" d="M3,0A3,3 0 1,1 0,-3A3,3 0 0,1 3,0Z" style="opacity: 1; stroke-width: 0px; fill: rgb(173, 138, 85); fill-opacity: 1;" /><path class="point" transform="translate(1413.55,288.63)" d="M3,0A3,3 0 1,1 0,-3A3,3 0 0,1 3,0Z" style="opacity: 1; stroke-width: 0px; fill: rgb(173, 138, 85); fill-opacity: 1;" /><path class="point" transform="translate(1413.55,283.5)" d="M3,0A3,3 0 1,1 0,-3A3,3 0 0,1 3,0Z" style="opacity: 1; stroke-width: 0px; fill: rgb(173, 138, 85); fill-opacity: 1;" /><path class="point" transform="translate(1413.55,276.56)" d="M3,0A3,3 0 1,1 0,-3A3,3 0 0,1 3,0Z" style="opacity: 1; stroke-width: 0px; fill: rgb(173, 138, 85); fill-opacity: 1;" /><path class="point" transform="translate(1413.55,273.23)" d="M3,0A3,3 0 1,1 0,-3A3,3 0 0,1 3,0Z" style="opacity: 1; stroke-width: 0px; fill: rgb(173, 138, 85); fill-opacity: 1;" /><path class="point" transform="translate(1413.55,262.87)" d="M3,0A3,3 0 1,1 0,-3A3,3 0 0,1 3,0Z" style="opacity: 1; stroke-width: 0px; fill: rgb(173, 138, 85); fill-opacity: 1;" /><path class="point" transform="translate(1413.55,262.27)" d="M3,0A3,3 0 1,1 0,-3A3,3 0 0,1 3,0Z" style="opacity: 1; stroke-width: 0px; fill: rgb(173, 138, 85); fill-opacity: 1;" /><path class="point" transform="translate(1413.55,257.09)" d="M3,0A3,3 0 1,1 0,-3A3,3 0 0,1 3,0Z" style="opacity: 1; stroke-width: 0px; fill: rgb(173, 138, 85); fill-opacity: 1;" /><path class="point" transform="translate(1413.55,254.36)" d="M3,0A3,3 0 1,1 0,-3A3,3 0 0,1 3,0Z" style="opacity: 1; stroke-width: 0px; fill: rgb(173, 138, 85); fill-opacity: 1;" /><path class="point" transform="translate(1413.55,225.49)" d="M3,0A3,3 0 1,1 0,-3A3,3 0 0,1 3,0Z" style="opacity: 1; stroke-width: 0px; fill: rgb(173, 138, 85); fill-opacity: 1;" /><path class="point" transform="translate(1413.55,220.78)" d="M3,0A3,3 0 1,1 0,-3A3,3 0 0,1 3,0Z" style="opacity: 1; stroke-width: 0px; fill: rgb(173, 138, 85); fill-opacity: 1;" /><path class="point" transform="translate(1413.55,213.47)" d="M3,0A3,3 0 1,1 0,-3A3,3 0 0,1 3,0Z" style="opacity: 1; stroke-width: 0px; fill: rgb(173, 138, 85); fill-opacity: 1;" /><path class="point" transform="translate(1413.55,45)" d="M3,0A3,3 0 1,1 0,-3A3,3 0 0,1 3,0Z" style="opacity: 1; stroke-width: 0px; fill: rgb(173, 138, 85); fill-opacity: 1;" /></g></g><g class="trace boxes" style="opacity: 0;"><path class="box" d="M1539.11,575.89H1620.59M1539.11,631H1620.59V527.47H1539.11ZM1579.85,631V659.7M1579.85,527.47V427.17M1559.48,659.7H1600.22M1559.48,427.17H1600.22" style="vector-effect: none; stroke-width: 2px; stroke: rgb(43, 33, 20); stroke-opacity: 1; fill: rgb(43, 33, 20); fill-opacity: 0.5;" /><g class="points"><path class="point" transform="translate(1579.85,191.49)" d="M3,0A3,3 0 1,1 0,-3A3,3 0 0,1 3,0Z" style="opacity: 1; stroke-width: 0px; fill: rgb(43, 33, 20); fill-opacity: 1;" /></g></g></g></g></g><g class="zerolinelayer-above" /><path class="xlines-above crisp" d="M0,0" style="fill: none;" /><path class="ylines-above crisp" d="M0,0" style="fill: none;" /><g class="overlines-above" /><g class="xaxislayer-above"><g class="xtick"><text text-anchor="middle" x="0" y="1013" transform="translate(163.15,0)" style="font-family: 'Open Sans', verdana, arial, sans-serif; font-size: 12px; fill: rgb(42, 63, 95); fill-opacity: 1; white-space: pre;"><tspan class="line" dy="0em" x="0" y="1013">full_match</tspan><tspan class="line" dy="1.3em" x="0" y="1013">n=9</tspan></text></g><g class="xtick"><text text-anchor="middle" x="0" y="1013" transform="translate(329.45,0)" style="font-family: 'Open Sans', verdana, arial, sans-serif; font-size: 12px; fill: rgb(42, 63, 95); fill-opacity: 1; white-space: pre;"><tspan class="line" dy="0em" x="0" y="1013">feature</tspan><tspan class="line" dy="1.3em" x="0" y="1013">n=20</tspan></text></g><g class="xtick"><text text-anchor="middle" x="0" y="1013" transform="translate(495.75,0)" style="font-family: 'Open Sans', verdana, arial, sans-serif; font-size: 12px; fill: rgb(42, 63, 95); fill-opacity: 1; white-space: pre;"><tspan class="line" dy="0em" x="0" y="1013">highlights</tspan><tspan class="line" dy="1.3em" x="0" y="1013">n=264</tspan></text></g><g class="xtick"><text text-anchor="middle" x="0" y="1013" transform="translate(662.05,0)" style="font-family: 'Open Sans', verdana, arial, sans-serif; font-size: 12px; fill: rgb(42, 63, 95); fill-opacity: 1; white-space: pre;"><tspan class="line" dy="0em" x="0" y="1013">match_preview</tspan><tspan class="line" dy="1.3em" x="0" y="1013">n=72</tspan></text></g><g class="xtick"><text text-anchor="middle" x="0" y="1013" transform="translate(828.35,0)" style="font-family: 'Open Sans', verdana, arial, sans-serif; font-size: 12px; fill: rgb(42, 63, 95); fill-opacity: 1; white-space: pre;"><tspan class="line" dy="0em" x="0" y="1013">press_interview</tspan><tspan class="line" dy="1.3em" x="0" y="1013">n=338</tspan></text></g><g class="xtick"><text text-anchor="middle" x="0" y="1013" transform="translate(994.65,0)" style="font-family: 'Open Sans', verdana, arial, sans-serif; font-size: 12px; fill: rgb(42, 63, 95); fill-opacity: 1; white-space: pre;"><tspan class="line" dy="0em" x="0" y="1013">show</tspan><tspan class="line" dy="1.3em" x="0" y="1013">n=148</tspan></text></g><g class="xtick"><text text-anchor="middle" x="0" y="1013" transform="translate(1160.95,0)" style="font-family: 'Open Sans', verdana, arial, sans-serif; font-size: 12px; fill: rgb(42, 63, 95); fill-opacity: 1; white-space: pre;"><tspan class="line" dy="0em" x="0" y="1013">unclassified</tspan><tspan class="line" dy="1.3em" x="0" y="1013">n=96</tspan></text></g><g class="xtick"><text text-anchor="middle" x="0" y="1013" transform="translate(1327.25,0)" style="font-family: 'Open Sans', verdana, arial, sans-serif; font-size: 12px; fill: rgb(42, 63, 95); fill-opacity: 1; white-space: pre;"><tspan class="line" dy="0em" x="0" y="1013">no_playlist</tspan><tspan class="line" dy="1.3em" x="0" y="1013">n=96</tspan></text></g><g class="xtick"><text text-anchor="middle" x="0" y="1013" transform="translate(1493.55,0)" style="font-family: 'Open Sans', verdana, arial, sans-serif; font-size: 12px; fill: rgb(42, 63, 95); fill-opacity: 1; white-space: pre;"><tspan class="line" dy="0em" x="0" y="1013">podcast</tspan><tspan class="line" dy="1.3em" x="0" y="1013">n=372</tspan></text></g><g class="xtick"><text text-anchor="middle" x="0" y="1013" transform="translate(1659.85,0)" style="font-family: 'Open Sans', verdana, arial, sans-serif; font-size: 12px; fill: rgb(42, 63, 95); fill-opacity: 1; white-space: pre;"><tspan class="line" dy="0em" x="0" y="1013">community</tspan><tspan class="line" dy="1.3em" x="0" y="1013">n=9</tspan></text></g></g><g class="yaxislayer-above"><g class="ytick"><text text-anchor="end" x="79" y="4.199999999999999" transform="translate(0,977.9)" style="font-family: 'Open Sans', verdana, arial, sans-serif; font-size: 12px; fill: rgb(42, 63, 95); fill-opacity: 1; white-space: pre;">0.0%</text></g><g class="ytick"><text text-anchor="end" x="79" y="4.199999999999999" style="font-family: 'Open Sans', verdana, arial, sans-serif; font-size: 12px; fill: rgb(42, 63, 95); fill-opacity: 1; white-space: pre;" transform="translate(0,885.38)">2.0%</text></g><g class="ytick"><text text-anchor="end" x="79" y="4.199999999999999" style="font-family: 'Open Sans', verdana, arial, sans-serif; font-size: 12px; fill: rgb(42, 63, 95); fill-opacity: 1; white-space: pre;" transform="translate(0,792.87)">4.0%</text></g><g class="ytick"><text text-anchor="end" x="79" y="4.199999999999999" style="font-family: 'Open Sans', verdana, arial, sans-serif; font-size: 12px; fill: rgb(42, 63, 95); fill-opacity: 1; white-space: pre;" transform="translate(0,700.36)">6.0%</text></g><g class="ytick"><text text-anchor="end" x="79" y="4.199999999999999" style="font-family: 'Open Sans', verdana, arial, sans-serif; font-size: 12px; fill: rgb(42, 63, 95); fill-opacity: 1; white-space: pre;" transform="translate(0,607.8399999999999)">8.0%</text></g><g class="ytick"><text text-anchor="end" x="79" y="4.199999999999999" style="font-family: 'Open Sans', verdana, arial, sans-serif; font-size: 12px; fill: rgb(42, 63, 95); fill-opacity: 1; white-space: pre;" transform="translate(0,515.3299999999999)">10.0%</text></g><g class="ytick"><text text-anchor="end" x="79" y="4.199999999999999" style="font-family: 'Open Sans', verdana, arial, sans-serif; font-size: 12px; fill: rgb(42, 63, 95); fill-opacity: 1; white-space: pre;" transform="translate(0,422.82)">12.0%</text></g><g class="ytick"><text text-anchor="end" x="79" y="4.199999999999999" style="font-family: 'Open Sans', verdana, arial, sans-serif; font-size: 12px; fill: rgb(42, 63, 95); fill-opacity: 1; white-space: pre;" transform="translate(0,330.3)">14.0%</text></g><g class="ytick"><text text-anchor="end" x="79" y="4.199999999999999" style="font-family: 'Open Sans', verdana, arial, sans-serif; font-size: 12px; fill: rgb(42, 63, 95); fill-opacity: 1; white-space: pre;" transform="translate(0,237.79)">16.0%</text></g><g class="ytick"><text text-anchor="end" x="79" y="4.199999999999999" style="font-family: 'Open Sans', verdana, arial, sans-serif; font-size: 12px; fill: rgb(42, 63, 95); fill-opacity: 1; white-space: pre;" transform="translate(0,145.28)">18.0%</text></g></g><g class="overaxes-above" /></g></g><g class="polarlayer" /><g class="smithlayer" /><g class="ternarylayer" /><g class="geolayer" /><g class="funnelarealayer" /><g class="pielayer" /><g class="iciclelayer" /><g class="treemaplayer" /><g class="sunburstlayer" /><g class="glimages" /><defs id="topdefs-b9b2a3"><g class="clips" /></defs><g class="layer-above"><g class="imagelayer" /><g class="shapelayer" /></g><g class="infolayer"><g class="g-gtitle"><text class="gtitle" x="96" y="50" text-anchor="start" dy="0em" style="opacity: 1; font-family: 'Open Sans', verdana, arial, sans-serif; font-size: 17px; fill: rgb(42, 63, 95); fill-opacity: 1; white-space: pre;">Engagement Rate by Content Type - Horizontal / Live</text></g><g class="g-xtitle"><text class="xtitle" x="911.5" y="1056.899609375" text-anchor="middle" style="opacity: 1; font-family: 'Open Sans', verdana, arial, sans-serif; font-size: 14px; fill: rgb(42, 63, 95); fill-opacity: 1; white-space: pre;">Content Type</text></g><g class="g-ytitle"><text class="ytitle" transform="rotate(-90,25.94375,550)" x="25.94375" y="550" text-anchor="middle" style="opacity: 1; font-family: 'Open Sans', verdana, arial, sans-serif; font-size: 14px; fill: rgb(42, 63, 95); fill-opacity: 1; white-space: pre;">Engagement Rate</text></g></g></svg>