<svg class="main-svg" xmlns="http://www.w3.org/2000/svg" xmlns:xlink="http://www.w3.org/1999/xlink" width="1920" height="1600" style="" viewBox="0 0 1920 1600"><rect x="0" y="0" width="1920" height="1600" style="fill: rgb(0, 0, 0); fill-opacity: 0;"/><defs id="defs-f44da0"><g class="clips"></g><g class="gradients"/><g class="patterns"/></defs><g class="bglayer"><rect class="bg" x="347" y="100" width="1493" height="1420" style="fill: rgb(0, 0, 0); fill-opacity: 0; stroke-width: 0;"/></g><g class="layer-below"><g class="imagelayer"/><g class="shapelayer"/></g><g class="cartesianlayer"><g class="subplot xy"><g class="layer-subplot"><g class="shapelayer"/><g class="imagelayer"/></g><g class="minor-gridlayer"><g class="x"/><g class="y"/></g><g class="gridlayer"><g class="x"/><g class="y"/></g><g class="zerolinelayer"><path class="xzl zl crisp" transform="translate(383.67,0)" d="M0,100v1420" style="stroke: rgb(0, 0, 0); stroke-opacity: 0; stroke-width: 2px;"/></g><g class="layer-between"><g class="shapelayer"/><g class="imagelayer"/></g><path class="xlines-below"/><path class="ylines-below"/><g class="overlines-below"/><g class="xaxislayer-below"/><g class="yaxislayer-below"/><g class="overaxes-below"/><g class="overplot"><g class="xy" transform="translate(347,100)"><g class="boxlayer mlayer"><g class="trace boxes" style="opacity: 0;"><path class="box" d="M149.54,36.48V12.49M135.75,36.48V12.49H150.6V36.48ZM135.75,24.48H118.31M150.6,24.48H151.92M118.31,30.48V18.48M151.92,30.48V18.48" style="vector-effect: none; stroke-width: 2px; stroke: rgb(195, 158, 109); stroke-opacity: 1; fill: rgb(195, 158, 109); fill-opacity: 0.5;"/><g class="points"/></g><g class="trace boxes" style="opacity: 0;"><path class="box" d="M222.75,85.44V61.45M222.75,85.44V61.45H222.75V85.44ZM222.75,73.45H222.75M222.75,73.45H222.75M222.75,79.45V67.45M222.75,79.45V67.45" style="vector-effect: none; stroke-width: 2px; stroke: rgb(43, 33, 20); stroke-opacity: 1; fill: rgb(43, 33, 20); fill-opacity: 0.5;"/><g class="points"/></g><g class="trace boxes" style="opacity: 0;"><path class="box" d="M230.88,134.41V110.42M188.74,134.41V110.42H404.67V134.41ZM188.74,122.41H162.97M404.67,122.41H614.79M162.97,128.41V116.42M614.79,128.41V116.42" style="vector-effect: none; stroke-width: 2px; stroke: rgb(150, 115, 62); stroke-opacity: 1; fill: rgb(150, 115, 62); fill-opacity: 0.5;"/><g class="points"/></g><g class="trace boxes" style="opacity: 0;"><path class="box" d="M250.95,183.38V159.38M219.33,183.38V159.38H279.11V183.38ZM219.33,171.38H194.2M279.11,171.38H300.79M194.2,177.38V165.38M300.79,177.38V165.38" style="vector-effect: none; stroke-width: 2px; stroke: rgb(88, 67, 36); stroke-opacity: 1; fill: rgb(88, 67, 36); fill-opacity: 0.5;"/><g class="points"/></g><g class="trace boxes" style="opacity: 0;"><path class="box" d="M311.61,232.34V208.35M182.58,232.34V208.35H347.75V232.34ZM182.58,220.34H131.74M347.75,220.34H381.05M131.74,226.34V214.35M381.05,226.34V214.35" style="vector-effect: none; stroke-width: 2px; stroke: rgb(173, 138, 85); stroke-opacity: 1; fill: rgb(173, 138, 85); fill-opacity: 0.5;"/><g class="points"/></g><g class="trace boxes" style="opacity: 0;"><path class="box" d="M314.18,281.31V257.31M260.39,281.31V257.31H373.53V281.31ZM260.39,269.31H222.67M373.53,269.31H416.81M222.67,275.31V263.31M416.81,275.31V263.31" style="vector-effect: none; stroke-width: 2px; stroke: rgb(122, 93, 49); stroke-opacity: 1; fill: rgb(122, 93, 49); fill-opacity: 0.5;"/><g class="points"/></g><g class="trace boxes" style="opacity: 0;"><path class="box" d="M315.56,330.27V306.28M231.11,330.27V306.28H455.94V330.27ZM231.11,318.28H74.65M455.94,318.28H791.89M74.65,324.27V312.28M791.89,324.27V312.28" style="vector-effect: none; stroke-width: 2px; stroke: rgb(138, 138, 144); stroke-opacity: 1; fill: rgb(138, 138, 144); fill-opacity: 0.5;"/><g class="points"><path class="point" transform="translate(799.18,318.28)" d="M3,0A3,3 0 1,1 0,-3A3,3 0 0,1 3,0Z" style="opacity: 1; stroke-width: 0px; fill: rgb(138, 138, 144); fill-opacity: 1;"/><path class="point" transform="translate(819.59,318.28)" d="M3,0A3,3 0 1,1 0,-3A3,3 0 0,1 3,0Z" style="opacity: 1; stroke-width: 0px; fill: rgb(138, 138, 144); fill-opacity: 1;"/><path class="point" transform="translate(843.3,318.28)" d="M3,0A3,3 0 1,1 0,-3A3,3 0 0,1 3,0Z" style="opacity: 1; stroke-width: 0px; fill: rgb(138, 138, 144); fill-opacity: 1;"/><path class="point" transform="translate(871.23,318.28)" d="M3,0A3,3 0 1,1 0,-3A3,3 0 0,1 3,0Z" style="opacity: 1; stroke-width: 0px; fill: rgb(138, 138, 144); fill-opacity: 1;"/><path class="point" transform="translate(873.76,318.28)" d="M3,0A3,3 0 1,1 0,-3A3,3 0 0,1 3,0Z" style="opacity: 1; stroke-width: 0px; fill: rgb(138, 138, 144); fill-opacity: 1;"/><path class="point" transform="translate(907.37,318.28)" d="M3,0A3,3 0 1,1 0,-3A3,3 0 0,1 3,0Z" style="opacity: 1; stroke-width: 0px; fill: rgb(138, 138, 144); fill-opacity: 1;"/><path class="point" transform="translate(911.75,318.28)" d="M3,0A3,3 0 1,1 0,-3A3,3 0 0,1 3,0Z" style="opacity: 1; stroke-width: 0px; fill: rgb(138, 138, 144); fill-opacity: 1;"/><path class="point" transform="translate(930.24,318.28)" d="M3,0A3,3 0 1,1 0,-3A3,3 0 0,1 3,0Z" style="opacity: 1; stroke-width: 0px; fill: rgb(138, 138, 144); fill-opacity: 1;"/><path class="point" transform="translate(1028.31,318.28)" d="M3,0A3,3 0 1,1 0,-3A3,3 0 0,1 3,0Z" style="opacity: 1; stroke-width: 0px; fill: rgb(138, 138, 144); fill-opacity: 1;"/><path class="point" transform="translate(1083.94,318.28)" d="M3,0A3,3 0 1,1 0,-3A3,3 0 0,1 3,0Z" style="opacity: 1; stroke-width: 0px; fill: rgb(138, 138, 144); fill-opacity: 1;"/></g></g><g class="trace boxes" style="opacity: 0;"><path class="box" d="M315.75,379.24V355.24M246.92,379.24V355.24H415.08V379.24ZM246.92,367.24H224.74M415.08,367.24H613.86M224.74,373.24V361.24M613.86,373.24V361.24" style="vector-effect: none; stroke-width: 2px; stroke: rgb(85, 85, 92); stroke-opacity: 1; fill: rgb(85, 85, 92); fill-opacity: 0.5;"/><g class="points"/></g><g class="trace boxes" style="opacity: 0;"><path class="box" d="M342.15,428.2V404.21M295.99,428.2V404.21H406.32V428.2ZM295.99,416.21H148.55M406.32,416.21H549.18M148.55,422.21V410.21M549.18,422.21V410.21" style="vector-effect: none; stroke-width: 2px; stroke: rgb(201, 201, 206); stroke-opacity: 1; fill: rgb(201, 201, 206); fill-opacity: 0.5;"/><g class="points"><path class="point" transform="translate(658.37,416.21)" d="M3,0A3,3 0 1,1 0,-3A3,3 0 0,1 3,0Z" style="opacity: 1; stroke-width: 0px; fill: rgb(201, 201, 206); fill-opacity: 1;"/><path class="point" transform="translate(835.24,416.21)" d="M3,0A3,3 0 1,1 0,-3A3,3 0 0,1 3,0Z" style="opacity: 1; stroke-width: 0px; fill: rgb(201, 201, 206); fill-opacity: 1;"/><path class="point" transform="translate(853.97,416.21)" d="M3,0A3,3 0 1,1 0,-3A3,3 0 0,1 3,0Z" style="opacity: 1; stroke-width: 0px; fill: rgb(201, 201, 206); fill-opacity: 1;"/><path class="point" transform="translate(873,416.21)" d="M3,0A3,3 0 1,1 0,-3A3,3 0 0,1 3,0Z" style="opacity: 1; stroke-width: 0px; fill: rgb(201, 201, 206); fill-opacity: 1;"/></g></g><g class="trace boxes" style="opacity: 0;"><path class="box" d="M363.25,477.17V453.18M331.33,477.17V453.18H482.34V477.17ZM331.33,465.17H275.62M482.34,465.17H534.29M275.62,471.17V459.17M534.29,471.17V459.17" style="vector-effect: none; stroke-width: 2px; stroke: rgb(166, 166, 172); stroke-opacity: 1; fill: rgb(166, 166, 172); fill-opacity: 0.5;"/><g class="points"/></g><g class="trace boxes" style="opacity: 0;"><path class="box" d="M383.89,526.13V502.14M325.42,526.13V502.14H482.03V526.13ZM325.42,514.14H174.87M482.03,514.14H682.08M174.87,520.14V508.14M682.08,520.14V508.14" style="vector-effect: none; stroke-width: 2px; stroke: rgb(195, 158, 109); stroke-opacity: 1; fill: rgb(195, 158, 109); fill-opacity: 0.5;"/><g class="points"><path class="point" transform="translate(751.76,514.14)" d="M3,0A3,3 0 1,1 0,-3A3,3 0 0,1 3,0Z" style="opacity: 1; stroke-width: 0px; fill: rgb(195, 158, 109); fill-opacity: 1;"/><path class="point" transform="translate(777.62,514.14)" d="M3,0A3,3 0 1,1 0,-3A3,3 0 0,1 3,0Z" style="opacity: 1; stroke-width: 0px; fill: rgb(195, 158, 109); fill-opacity: 1;"/><path class="point" transform="translate(855.5,514.14)" d="M3,0A3,3 0 1,1 0,-3A3,3 0 0,1 3,0Z" style="opacity: 1; stroke-width: 0px; fill: rgb(195, 158, 109); fill-opacity: 1;"/><path class="point" transform="translate(926.71,514.14)" d="M3,0A3,3 0 1,1 0,-3A3,3 0 0,1 3,0Z" style="opacity: 1; stroke-width: 0px; fill: rgb(195, 158, 109); fill-opacity: 1;"/><path class="point" transform="translate(984.88,514.14)" d="M3,0A3,3 0 1,1 0,-3A3,3 0 0,1 3,0Z" style="opacity: 1; stroke-width: 0px; fill: rgb(195, 158, 109); fill-opacity: 1;"/><path class="point" transform="translate(1068.82,514.14)" d="M3,0A3,3 0 1,1 0,-3A3,3 0 0,1 3,0Z" style="opacity: 1; stroke-width: 0px; fill: rgb(195, 158, 109); fill-opacity: 1;"/></g></g><g class="trace boxes" style="opacity: 0;"><path class="box" d="M386.81,575.1V551.11M386.81,575.1V551.11H386.81V575.1ZM386.81,563.1H386.81M386.81,563.1H386.81M386.81,569.1V557.11M386.81,569.1V557.11" style="vector-effect: none; stroke-width: 2px; stroke: rgb(43, 33, 20); stroke-opacity: 1; fill: rgb(43, 33, 20); fill-opacity: 0.5;"/><g class="points"/></g><g class="trace boxes" style="opacity: 0;"><path class="box" d="M394.94,624.07V600.07M315.23,624.07V600.07H420.93V624.07ZM315.23,612.07H218.45M420.93,612.07H543.11M218.45,618.07V606.07M543.11,618.07V606.07" style="vector-effect: none; stroke-width: 2px; stroke: rgb(150, 115, 62); stroke-opacity: 1; fill: rgb(150, 115, 62); fill-opacity: 0.5;"/><g class="points"/></g><g class="trace boxes" style="opacity: 0;"><path class="box" d="M399.93,673.03V649.04M330.79,673.03V649.04H498.92V673.03ZM330.79,661.03H140.72M498.92,661.03H735.72M140.72,667.03V655.04M735.72,667.03V655.04" style="vector-effect: none; stroke-width: 2px; stroke: rgb(88, 67, 36); stroke-opacity: 1; fill: rgb(88, 67, 36); fill-opacity: 0.5;"/><g class="points"><path class="point" transform="translate(754.67,661.03)" d="M3,0A3,3 0 1,1 0,-3A3,3 0 0,1 3,0Z" style="opacity: 1; stroke-width: 0px; fill: rgb(88, 67, 36); fill-opacity: 1;"/><path class="point" transform="translate(768.25,661.03)" d="M3,0A3,3 0 1,1 0,-3A3,3 0 0,1 3,0Z" style="opacity: 1; stroke-width: 0px; fill: rgb(88, 67, 36); fill-opacity: 1;"/><path class="point" transform="translate(790.35,661.03)" d="M3,0A3,3 0 1,1 0,-3A3,3 0 0,1 3,0Z" style="opacity: 1; stroke-width: 0px; fill: rgb(88, 67, 36); fill-opacity: 1;"/><path class="point" transform="translate(805.78,661.03)" d="M3,0A3,3 0 1,1 0,-3A3,3 0 0,1 3,0Z" style="opacity: 1; stroke-width: 0px; fill: rgb(88, 67, 36); fill-opacity: 1;"/><path class="point" transform="translate(824.96,661.03)" d="M3,0A3,3 0 1,1 0,-3A3,3 0 0,1 3,0Z" style="opacity: 1; stroke-width: 0px; fill: rgb(88, 67, 36); fill-opacity: 1;"/><path class="point" transform="translate(835.01,661.03)" d="M3,0A3,3 0 1,1 0,-3A3,3 0 0,1 3,0Z" style="opacity: 1; stroke-width: 0px; fill: rgb(88, 67, 36); fill-opacity: 1;"/><path class="point" transform="translate(879.75,661.03)" d="M3,0A3,3 0 1,1 0,-3A3,3 0 0,1 3,0Z" style="opacity: 1; stroke-width: 0px; fill: rgb(88, 67, 36); fill-opacity: 1;"/><path class="point" transform="translate(887.35,661.03)" d="M3,0A3,3 0 1,1 0,-3A3,3 0 0,1 3,0Z" style="opacity: 1; stroke-width: 0px; fill: rgb(88, 67, 36); fill-opacity: 1;"/><path class="point" transform="translate(915.66,661.03)" d="M3,0A3,3 0 1,1 0,-3A3,3 0 0,1 3,0Z" style="opacity: 1; stroke-width: 0px; fill: rgb(88, 67, 36); fill-opacity: 1;"/><path class="point" transform="translate(1240.33,661.03)" d="M3,0A3,3 0 1,1 0,-3A3,3 0 0,1 3,0Z" style="opacity: 1; stroke-width: 0px; fill: rgb(88, 67, 36); fill-opacity: 1;"/></g></g><g class="trace boxes" style="opacity: 0;"><path class="box" d="M411.28,722V698M371.63,722V698H518.46V722ZM371.63,710H306.54M518.46,710H663.43M306.54,716V704M663.43,716V704" style="vector-effect: none; stroke-width: 2px; stroke: rgb(173, 138, 85); stroke-opacity: 1; fill: rgb(173, 138, 85); fill-opacity: 0.5;"/><g class="points"/></g><g class="trace boxes" style="opacity: 0;"><path class="box" d="M417.42,770.96V746.97M304.09,770.96V746.97H655.76V770.96ZM304.09,758.97H135.27M655.76,758.97H697.89M135.27,764.96V752.97M697.89,764.96V752.97" style="vector-effect: none; stroke-width: 2px; stroke: rgb(122, 93, 49); stroke-opacity: 1; fill: rgb(122, 93, 49); fill-opacity: 0.5;"/><g class="points"/></g><g class="trace boxes" style="opacity: 0;"><path class="box" d="M435,819.93V795.93M435,819.93V795.93H435V819.93ZM435,807.93H435M435,807.93H435M435,813.93V801.93M435,813.93V801.93" style="vector-effect: none; stroke-width: 2px; stroke: rgb(138, 138, 144); stroke-opacity: 1; fill: rgb(138, 138, 144); fill-opacity: 0.5;"/><g class="points"/></g><g class="trace boxes" style="opacity: 0;"><path class="box" d="M442.29,868.89V844.9M374.22,868.89V844.9H584.97V868.89ZM374.22,856.9H273.85M584.97,856.9H880.44M273.85,862.89V850.9M880.44,862.89V850.9" style="vector-effect: none; stroke-width: 2px; stroke: rgb(85, 85, 92); stroke-opacity: 1; fill: rgb(85, 85, 92); fill-opacity: 0.5;"/><g class="points"><path class="point" transform="translate(986.79,856.9)" d="M3,0A3,3 0 1,1 0,-3A3,3 0 0,1 3,0Z" style="opacity: 1; stroke-width: 0px; fill: rgb(85, 85, 92); fill-opacity: 1;"/><path class="point" transform="translate(1006.05,856.9)" d="M3,0A3,3 0 1,1 0,-3A3,3 0 0,1 3,0Z" style="opacity: 1; stroke-width: 0px; fill: rgb(85, 85, 92); fill-opacity: 1;"/><path class="point" transform="translate(1034.22,856.9)" d="M3,0A3,3 0 1,1 0,-3A3,3 0 0,1 3,0Z" style="opacity: 1; stroke-width: 0px; fill: rgb(85, 85, 92); fill-opacity: 1;"/></g></g><g class="trace boxes" style="opacity: 0;"><path class="box" d="M444.13,917.86V893.87M349.9,917.86V893.87H500.03V917.86ZM349.9,905.86H156.6M500.03,905.86H721.14M156.6,911.86V899.86M721.14,911.86V899.86" style="vector-effect: none; stroke-width: 2px; stroke: rgb(201, 201, 206); stroke-opacity: 1; fill: rgb(201, 201, 206); fill-opacity: 0.5;"/><g class="points"><path class="point" transform="translate(756.82,905.86)" d="M3,0A3,3 0 1,1 0,-3A3,3 0 0,1 3,0Z" style="opacity: 1; stroke-width: 0px; fill: rgb(201, 201, 206); fill-opacity: 1;"/><path class="point" transform="translate(762.04,905.86)" d="M3,0A3,3 0 1,1 0,-3A3,3 0 0,1 3,0Z" style="opacity: 1; stroke-width: 0px; fill: rgb(201, 201, 206); fill-opacity: 1;"/><path class="point" transform="translate(763.27,905.86)" d="M3,0A3,3 0 1,1 0,-3A3,3 0 0,1 3,0Z" style="opacity: 1; stroke-width: 0px; fill: rgb(201, 201, 206); fill-opacity: 1;"/><path class="point" transform="translate(770.71,905.86)" d="M3,0A3,3 0 1,1 0,-3A3,3 0 0,1 3,0Z" style="opacity: 1; stroke-width: 0px; fill: rgb(201, 201, 206); fill-opacity: 1;"/></g></g><g class="trace boxes" style="opacity: 0;"><path class="box" d="M447.85,966.82V942.83M300.94,966.82V942.83H498.69V966.82ZM300.94,954.83H117.93M498.69,954.83H746.69M117.93,960.83V948.83M746.69,960.83V948.83" style="vector-effect: none; stroke-width: 2px; stroke: rgb(166, 166, 172); stroke-opacity: 1; fill: rgb(166, 166, 172); fill-opacity: 0.5;"/><g class="points"/></g><g class="trace boxes" style="opacity: 0;"><path class="box" d="M458.02,1015.79V991.8M350.74,1015.79V991.8H565.29V1015.79ZM350.74,1003.79H350.74M565.29,1003.79H565.29M350.74,1009.79V997.79M565.29,1009.79V997.79" style="vector-effect: none; stroke-width: 2px; stroke: rgb(195, 158, 109); stroke-opacity: 1; fill: rgb(195, 158, 109); fill-opacity: 0.5;"/><g class="points"/></g><g class="trace boxes" style="opacity: 0;"><path class="box" d="M466.23,1064.76V1040.76M352.7,1064.76V1040.76H584.05V1064.76ZM352.7,1052.76H148.09M584.05,1052.76H916.28M148.09,1058.76V1046.76M916.28,1058.76V1046.76" style="vector-effect: none; stroke-width: 2px; stroke: rgb(43, 33, 20); stroke-opacity: 1; fill: rgb(43, 33, 20); fill-opacity: 0.5;"/><g class="points"/></g><g class="trace boxes" style="opacity: 0;"><path class="box" d="M488.02,1113.72V1089.73M400.7,1113.72V1089.73H585.97V1113.72ZM400.7,1101.72H271.4M585.97,1101.72H671.03M271.4,1107.72V1095.73M671.03,1107.72V1095.73" style="vector-effect: none; stroke-width: 2px; stroke: rgb(150, 115, 62); stroke-opacity: 1; fill: rgb(150, 115, 62); fill-opacity: 0.5;"/><g class="points"/></g><g class="trace boxes" style="opacity: 0;"><path class="box" d="M504.21,1162.69V1138.69M429.64,1162.69V1138.69H688.16V1162.69ZM429.64,1150.69H251.98M688.16,1150.69H945.59M251.98,1156.69V1144.69M945.59,1156.69V1144.69" style="vector-effect: none; stroke-width: 2px; stroke: rgb(88, 67, 36); stroke-opacity: 1; fill: rgb(88, 67, 36); fill-opacity: 0.5;"/><g class="points"/></g><g class="trace boxes" style="opacity: 0;"><path class="box" d="M533.98,1211.65V1187.66M435.49,1211.65V1187.66H657.89V1211.65ZM435.49,1199.66H253.44M657.89,1199.66H988.25M253.44,1205.65V1193.66M988.25,1205.65V1193.66" style="vector-effect: none; stroke-width: 2px; stroke: rgb(173, 138, 85); stroke-opacity: 1; fill: rgb(173, 138, 85); fill-opacity: 0.5;"/><g class="points"><path class="point" transform="translate(1039.74,1199.66)" d="M3,0A3,3 0 1,1 0,-3A3,3 0 0,1 3,0Z" style="opacity: 1; stroke-width: 0px; fill: rgb(173, 138, 85); fill-opacity: 1;"/><path class="point" transform="translate(1066.52,1199.66)" d="M3,0A3,3 0 1,1 0,-3A3,3 0 0,1 3,0Z" style="opacity: 1; stroke-width: 0px; fill: rgb(173, 138, 85); fill-opacity: 1;"/><path class="point" transform="translate(1138.88,1199.66)" d="M3,0A3,3 0 1,1 0,-3A3,3 0 0,1 3,0Z" style="opacity: 1; stroke-width: 0px; fill: rgb(173, 138, 85); fill-opacity: 1;"/><path class="point" transform="translate(1418.35,1199.66)" d="M3,0A3,3 0 1,1 0,-3A3,3 0 0,1 3,0Z" style="opacity: 1; stroke-width: 0px; fill: rgb(173, 138, 85); fill-opacity: 1;"/></g></g><g class="trace boxes" style="opacity: 0;"><path class="box" d="M537.67,1260.62V1236.62M446.24,1260.62V1236.62H617.99V1260.62ZM446.24,1248.62H398.62M617.99,1248.62H784.37M398.62,1254.62V1242.62M784.37,1254.62V1242.62" style="vector-effect: none; stroke-width: 2px; stroke: rgb(122, 93, 49); stroke-opacity: 1; fill: rgb(122, 93, 49); fill-opacity: 0.5;"/><g class="points"><path class="point" transform="translate(1175.33,1248.62)" d="M3,0A3,3 0 1,1 0,-3A3,3 0 0,1 3,0Z" style="opacity: 1; stroke-width: 0px; fill: rgb(122, 93, 49); fill-opacity: 1;"/></g></g><g class="trace boxes" style="opacity: 0;"><path class="box" d="M538.05,1309.58V1285.59M449.63,1309.58V1285.59H660.04V1309.58ZM449.63,1297.59H185.07M660.04,1297.59H909.52M185.07,1303.58V1291.59M909.52,1303.58V1291.59" style="vector-effect: none; stroke-width: 2px; stroke: rgb(138, 138, 144); stroke-opacity: 1; fill: rgb(138, 138, 144); fill-opacity: 0.5;"/><g class="points"><path class="point" transform="translate(1056.93,1297.59)" d="M3,0A3,3 0 1,1 0,-3A3,3 0 0,1 3,0Z" style="opacity: 1; stroke-width: 0px; fill: rgb(138, 138, 144); fill-opacity: 1;"/><path class="point" transform="translate(1057.93,1297.59)" d="M3,0A3,3 0 1,1 0,-3A3,3 0 0,1 3,0Z" style="opacity: 1; stroke-width: 0px; fill: rgb(138, 138, 144); fill-opacity: 1;"/><path class="point" transform="translate(1071.05,1297.59)" d="M3,0A3,3 0 1,1 0,-3A3,3 0 0,1 3,0Z" style="opacity: 1; stroke-width: 0px; fill: rgb(138, 138, 144); fill-opacity: 1;"/><path class="point" transform="translate(1126.76,1297.59)" d="M3,0A3,3 0 1,1 0,-3A3,3 0 0,1 3,0Z" style="opacity: 1; stroke-width: 0px; fill: rgb(138, 138, 144); fill-opacity: 1;"/></g></g><g class="trace boxes" style="opacity: 0;"><path class="box" d="M634.89,1358.55V1334.56M399.66,1358.55V1334.56H744.39V1358.55ZM399.66,1346.55H189.68M744.39,1346.55H997.38M189.68,1352.55V1340.55M997.38,1352.55V1340.55" style="vector-effect: none; stroke-width: 2px; stroke: rgb(85, 85, 92); stroke-opacity: 1; fill: rgb(85, 85, 92); fill-opacity: 0.5;"/><g class="points"/></g><g class="trace boxes" style="opacity: 0;"><path class="box" d="M649.12,1407.51V1383.52M572.39,1407.51V1383.52H929.17V1407.51ZM572.39,1395.52H343.6M929.17,1395.52H1118.93M343.6,1401.52V1389.52M1118.93,1401.52V1389.52" style="vector-effect: none; stroke-width: 2px; stroke: rgb(201, 201, 206); stroke-opacity: 1; fill: rgb(201, 201, 206); fill-opacity: 0.5;"/><g class="points"/></g></g></g></g><g class="zerolinelayer-above"/><path class="xlines-above crisp" d="M346,1520.5H1840" style="fill: none; stroke-width: 1px; stroke: rgb(0, 0, 0); stroke-opacity: 0;"/><path class="ylines-above crisp" d="M346.5,100V1520" style="fill: none; stroke-width: 1px; stroke: rgb(0, 0, 0); stroke-opacity: 0;"/><g class="overlines-above"/><g class="xaxislayer-above"><g class="xtick"><text text-anchor="middle" x="0" y="1535.4" transform="translate(383.67,0)" style="font-family: 'Open Sans', verdana, arial, sans-serif; font-size: 12px; fill: rgb(0, 0, 0); fill-opacity: 0; white-space: pre;">0.0%</text></g><g class="xtick"><text text-anchor="middle" x="0" y="1535.4" style="font-family: 'Open Sans', verdana, arial, sans-serif; font-size: 12px; fill: rgb(0, 0, 0); fill-opacity: 0; white-space: pre;" transform="translate(537.14,0)">2.0%</text></g><g class="xtick"><text text-anchor="middle" x="0" y="1535.4" style="font-family: 'Open Sans', verdana, arial, sans-serif; font-size: 12px; fill: rgb(0, 0, 0); fill-opacity: 0; white-space: pre;" transform="translate(690.6,0)">4.0%</text></g><g class="xtick"><text text-anchor="middle" x="0" y="1535.4" style="font-family: 'Open Sans', verdana, arial, sans-serif; font-size: 12px; fill: rgb(0, 0, 0); fill-opacity: 0; white-space: pre;" transform="translate(844.0699999999999,0)">6.0%</text></g><g class="xtick"><text text-anchor="middle" x="0" y="1535.4" style="font-family: 'Open Sans', verdana, arial, sans-serif; font-size: 12px; fill: rgb(0, 0, 0); fill-opacity: 0; white-space: pre;" transform="translate(997.54,0)">8.0%</text></g><g class="xtick"><text text-anchor="middle" x="0" y="1535.4" style="font-family: 'Open Sans', verdana, arial, sans-serif; font-size: 12px; fill: rgb(0, 0, 0); fill-opacity: 0; white-space: pre;" transform="translate(1151.01,0)">10.0%</text></g><g class="xtick"><text text-anchor="middle" x="0" y="1535.4" style="font-family: 'Open Sans', verdana, arial, sans-serif; font-size: 12px; fill: rgb(0, 0, 0); fill-opacity: 0; white-space: pre;" transform="translate(1304.48,0)">12.0%</text></g><g class="xtick"><text text-anchor="middle" x="0" y="1535.4" style="font-family: 'Open Sans', verdana, arial, sans-serif; font-size: 12px; fill: rgb(0, 0, 0); fill-opacity: 0; white-space: pre;" transform="translate(1457.95,0)">14.0%</text></g><g class="xtick"><text text-anchor="middle" x="0" y="1535.4" style="font-family: 'Open Sans', verdana, arial, sans-serif; font-size: 12px; fill: rgb(0, 0, 0); fill-opacity: 0; white-space: pre;" transform="translate(1611.42,0)">16.0%</text></g><g class="xtick"><text text-anchor="middle" x="0" y="1535.4" style="font-family: 'Open Sans', verdana, arial, sans-serif; font-size: 12px; fill: rgb(0, 0, 0); fill-opacity: 0; white-space: pre;" transform="translate(1764.89,0)">18.0%</text></g></g><g class="yaxislayer-above"><g class="ytick"><text text-anchor="end" x="343.6" y="4.199999999999999" transform="translate(0,124.48)" style="font-family: 'Open Sans', verdana, arial, sans-serif; font-size: 12px; fill: rgb(0, 0, 0); fill-opacity: 0; white-space: pre;">Explore BMO Stadium  (n=5)</text></g><g class="ytick"><text text-anchor="end" x="343.6" y="4.199999999999999" transform="translate(0,173.45)" style="font-family: 'Open Sans', verdana, arial, sans-serif; font-size: 12px; fill: rgb(0, 0, 0); fill-opacity: 0; white-space: pre;">Celebrities, Actors, Stars Experience LAFC Games  (n=1)</text></g><g class="ytick"><text text-anchor="end" x="343.6" y="4.199999999999999" transform="translate(0,222.41)" style="font-family: 'Open Sans', verdana, arial, sans-serif; font-size: 12px; fill: rgb(0, 0, 0); fill-opacity: 0; white-space: pre;">Full Matches  (n=9)</text></g><g class="ytick"><text text-anchor="end" x="343.6" y="4.199999999999999" transform="translate(0,271.38)" style="font-family: 'Open Sans', verdana, arial, sans-serif; font-size: 12px; fill: rgb(0, 0, 0); fill-opacity: 0; white-space: pre;">The LAFC Academy  (n=4)</text></g><g class="ytick"><text text-anchor="end" x="343.6" y="4.199999999999999" transform="translate(0,320.34000000000003)" style="font-family: 'Open Sans', verdana, arial, sans-serif; font-size: 12px; fill: rgb(0, 0, 0); fill-opacity: 0; white-space: pre;">LAFC Player Profiles - 2024  (n=8)</text></g><g class="ytick"><text text-anchor="end" x="343.6" y="4.199999999999999" transform="translate(0,369.31)" style="font-family: 'Open Sans', verdana, arial, sans-serif; font-size: 12px; fill: rgb(0, 0, 0); fill-opacity: 0; white-space: pre;">LAFC2 Team Report  (n=4)</text></g><g class="ytick"><text text-anchor="end" x="343.6" y="4.199999999999999" transform="translate(0,418.28)" style="font-family: 'Open Sans', verdana, arial, sans-serif; font-size: 12px; fill: rgb(0, 0, 0); fill-opacity: 0; white-space: pre;">Highlights  (n=258)</text></g><g class="ytick"><text text-anchor="end" x="343.6" y="4.199999999999999" transform="translate(0,467.24)" style="font-family: 'Open Sans', verdana, arial, sans-serif; font-size: 12px; fill: rgb(0, 0, 0); fill-opacity: 0; white-space: pre;">Sounds Of The Game  (n=7)</text></g><g class="ytick"><text text-anchor="end" x="343.6" y="4.199999999999999" transform="translate(0,516.21)" style="font-family: 'Open Sans', verdana, arial, sans-serif; font-size: 12px; fill: rgb(0, 0, 0); fill-opacity: 0; white-space: pre;">Behind The Crest  (n=45)</text></g><g class="ytick"><text text-anchor="end" x="343.6" y="4.199999999999999" transform="translate(0,565.1700000000001)" style="font-family: 'Open Sans', verdana, arial, sans-serif; font-size: 12px; fill: rgb(0, 0, 0); fill-opacity: 0; white-space: pre;">Anatomy of a Goal  (n=6)</text></g><g class="ytick"><text text-anchor="end" x="343.6" y="4.199999999999999" transform="translate(0,614.14)" style="font-family: 'Open Sans', verdana, arial, sans-serif; font-size: 12px; fill: rgb(0, 0, 0); fill-opacity: 0; white-space: pre;">Match Previews  (n=72)</text></g><g class="ytick"><text text-anchor="end" x="343.6" y="4.199999999999999" transform="translate(0,663.1)" style="font-family: 'Open Sans', verdana, arial, sans-serif; font-size: 12px; fill: rgb(0, 0, 0); fill-opacity: 0; white-space: pre;">LAFC's MLS All-Stars  (n=1)</text></g><g class="ytick"><text text-anchor="end" x="343.6" y="4.199999999999999" transform="translate(0,712.07)" style="font-family: 'Open Sans', verdana, arial, sans-serif; font-size: 12px; fill: rgb(0, 0, 0); fill-opacity: 0; white-space: pre;">The Vela Vault  (n=9)</text></g><g class="ytick"><text text-anchor="end" x="343.6" y="4.199999999999999" transform="translate(0,761.03)" style="font-family: 'Open Sans', verdana, arial, sans-serif; font-size: 12px; fill: rgb(0, 0, 0); fill-opacity: 0; white-space: pre;">Interviews  (n=338)</text></g><g class="ytick"><text text-anchor="end" x="343.6" y="4.199999999999999" transform="translate(0,810)" style="font-family: 'Open Sans', verdana, arial, sans-serif; font-size: 12px; fill: rgb(0, 0, 0); fill-opacity: 0; white-space: pre;">Major News  (n=11)</text></g><g class="ytick"><text text-anchor="end" x="343.6" y="4.199999999999999" transform="translate(0,858.97)" style="font-family: 'Open Sans', verdana, arial, sans-serif; font-size: 12px; fill: rgb(0, 0, 0); fill-opacity: 0; white-space: pre;">Faces Of LAFC  (n=6)</text></g><g class="ytick"><text text-anchor="end" x="343.6" y="4.199999999999999" transform="translate(0,907.93)" style="font-family: 'Open Sans', verdana, arial, sans-serif; font-size: 12px; fill: rgb(0, 0, 0); fill-opacity: 0; white-space: pre;">LAFC Essentials  (n=1)</text></g><g class="ytick"><text text-anchor="end" x="343.6" y="4.199999999999999" transform="translate(0,956.9)" style="font-family: 'Open Sans', verdana, arial, sans-serif; font-size: 12px; fill: rgb(0, 0, 0); fill-opacity: 0; white-space: pre;">Inside LAFC  (n=113)</text></g><g class="ytick"><text text-anchor="end" x="343.6" y="4.199999999999999" transform="translate(0,1005.86)" style="font-family: 'Open Sans', verdana, arial, sans-serif; font-size: 12px; fill: rgb(0, 0, 0); fill-opacity: 0; white-space: pre;">LAFC Weekly  (n=73)</text></g><g class="ytick"><text text-anchor="end" x="343.6" y="4.199999999999999" transform="translate(0,1054.83)" style="font-family: 'Open Sans', verdana, arial, sans-serif; font-size: 12px; fill: rgb(0, 0, 0); fill-opacity: 0; white-space: pre;">Adventures in the U.S. Open Cup  (n=28)</text></g><g class="ytick"><text text-anchor="end" x="343.6" y="4.199999999999999" transform="translate(0,1103.79)" style="font-family: 'Open Sans', verdana, arial, sans-serif; font-size: 12px; fill: rgb(0, 0, 0); fill-opacity: 0; white-space: pre;">Best of LAFC  (n=2)</text></g><g class="ytick"><text text-anchor="end" x="343.6" y="4.199999999999999" transform="translate(0,1152.76)" style="font-family: 'Open Sans', verdana, arial, sans-serif; font-size: 12px; fill: rgb(0, 0, 0); fill-opacity: 0; white-space: pre;">(no playlist)  (n=96)</text></g><g class="ytick"><text text-anchor="end" x="343.6" y="4.199999999999999" transform="translate(0,1201.72)" style="font-family: 'Open Sans', verdana, arial, sans-serif; font-size: 12px; fill: rgb(0, 0, 0); fill-opacity: 0; white-space: pre;">Off the Pitch | Presented by Waymo  (n=19)</text></g><g class="ytick"><text text-anchor="end" x="343.6" y="4.199999999999999" transform="translate(0,1250.69)" style="font-family: 'Open Sans', verdana, arial, sans-serif; font-size: 12px; fill: rgb(0, 0, 0); fill-opacity: 0; white-space: pre;">Black &amp; Gold Insider  (n=59)</text></g><g class="ytick"><text text-anchor="end" x="343.6" y="4.199999999999999" transform="translate(0,1299.66)" style="font-family: 'Open Sans', verdana, arial, sans-serif; font-size: 12px; fill: rgb(0, 0, 0); fill-opacity: 0; white-space: pre;">Acción LAFC Con Armando Aguayo  (n=77)</text></g><g class="ytick"><text text-anchor="end" x="343.6" y="4.199999999999999" transform="translate(0,1348.62)" style="font-family: 'Open Sans', verdana, arial, sans-serif; font-size: 12px; fill: rgb(0, 0, 0); fill-opacity: 0; white-space: pre;">Community &amp; Culture  (n=9)</text></g><g class="ytick"><text text-anchor="end" x="343.6" y="4.199999999999999" transform="translate(0,1397.59)" style="font-family: 'Open Sans', verdana, arial, sans-serif; font-size: 12px; fill: rgb(0, 0, 0); fill-opacity: 0; white-space: pre;">LAFC+  (n=107)</text></g><g class="ytick"><text text-anchor="end" x="343.6" y="4.199999999999999" transform="translate(0,1446.55)" style="font-family: 'Open Sans', verdana, arial, sans-serif; font-size: 12px; fill: rgb(0, 0, 0); fill-opacity: 0; white-space: pre;">The Son Spotlight  (n=40)</text></g><g class="ytick"><text text-anchor="end" x="343.6" y="4.199999999999999" transform="translate(0,1495.52)" style="font-family: 'Open Sans', verdana, arial, sans-serif; font-size: 12px; fill: rgb(0, 0, 0); fill-opacity: 0; white-space: pre;">Annyeong LAFC  (n=16)</text></g></g><g class="overaxes-above"/></g></g><g class="polarlayer"/><g class="smithlayer"/><g class="ternarylayer"/><g class="geolayer"/><g class="funnelarealayer"/><g class="pielayer"/><g class="iciclelayer"/><g class="treemaplayer"/><g class="sunburstlayer"/><g class="glimages"/><defs id="topdefs-f44da0"><g class="clips"/></defs><g class="layer-above"><g class="imagelayer"/><g class="shapelayer"/></g><g class="infolayer"><g class="g-gtitle"><text class="gtitle" x="96" y="50" text-anchor="start" dy="0em" style="opacity: 0; font-family: 'Open Sans', verdana, arial, sans-serif; font-size: 17px; fill: rgb(0, 0, 0); fill-opacity: 1; white-space: pre;">Engagement Rate by Playlist - Horizontal / Live</text></g><g class="g-xtitle"><text class="xtitle" x="1093.5" y="1563.700390625" text-anchor="middle" style="opacity: 0; font-family: 'Open Sans', verdana, arial, sans-serif; font-size: 14px; fill: rgb(0, 0, 0); fill-opacity: 1; white-space: pre;">Engagement Rate</text></g><g class="g-ytitle"><text class="ytitle" transform="rotate(-90,17.543359375000023,810)" x="17.543359375000023" y="810" text-anchor="middle" style="opacity: 0; font-family: 'Open Sans', verdana, arial, sans-serif; font-size: 14px; fill: rgb(0, 0, 0); fill-opacity: 1; white-space: pre;">Playlist</text></g></g></svg>