<svg xmlns="http://www.w3.org/2000/svg" class="main-svg" width="1920" height="1080" style="" viewBox="0 0 1920 1080"><rect x="0" y="0" width="1920" height="1080" style="fill: rgb(0, 0, 0); fill-opacity: 0;" /><defs id="defs-199b5d"><g class="clips"></g><g class="gradients" /><g class="patterns" /></defs><g class="bglayer"><rect class="bg" x="80" y="100" width="1642" height="900" style="fill: rgb(0, 0, 0); fill-opacity: 0; stroke-width: 0;" /></g><g class="layer-below"><g class="imagelayer" /><g class="shapelayer" /></g><g class="cartesianlayer"><g class="subplot xy"><g class="layer-subplot"><g class="shapelayer" /><g class="imagelayer" /></g><g class="minor-gridlayer"><g class="x" /><g class="y" /></g><g class="gridlayer"><g class="x" /><g class="y" /></g><g class="zerolinelayer"><path class="yzl zl crisp" transform="translate(0,977.9)" d="M80,0h1642" style="stroke: rgb(0, 0, 0); stroke-opacity: 0; stroke-width: 2px;" /></g><g class="layer-between"><g class="shapelayer" /><g class="imagelayer" /></g><path class="xlines-below" /><path class="ylines-below" /><g class="overlines-below" /><g class="xaxislayer-below" /><g class="yaxislayer-below" /><g class="overaxes-below" /><g class="overplot"><g class="xy" transform="translate(80,100)"><g class="boxlayer mlayer"><g class="trace boxes" style="opacity: 1;"><path class="box" d="M52.34,656.42H152.91M52.34,699.97H152.91V603.32H52.34ZM102.63,699.97V809.76M102.63,603.32V239.09M77.48,809.76H127.77M77.48,239.09H127.77" style="vector-effect: none; stroke-width: 2px; stroke: rgb(195, 158, 109); stroke-opacity: 1; fill: rgb(195, 158, 109); fill-opacity: 0.5;" /></g><g class="trace boxes" style="opacity: 1;"><path class="box" d="M257.59,625.87H358.16M257.59,694H358.16V542.21H257.59ZM307.88,694V828.91M307.88,542.21V329.99M282.73,828.91H333.02M282.73,329.99H333.02" style="vector-effect: none; stroke-width: 2px; stroke: rgb(43, 33, 20); stroke-opacity: 1; fill: rgb(43, 33, 20); fill-opacity: 0.5;" /></g><g class="trace boxes" style="opacity: 1;"><path class="box" d="M462.84,638.94H563.41M462.84,692.64H563.41V556.17H462.84ZM513.13,692.64V820.59M513.13,556.17V220.78M487.98,820.59H538.27M487.98,220.78H538.27" style="vector-effect: none; stroke-width: 2px; stroke: rgb(150, 115, 62); stroke-opacity: 1; fill: rgb(150, 115, 62); fill-opacity: 0.5;" /></g><g class="trace boxes" style="opacity: 1;"><path class="box" d="M668.09,616.82H768.66M668.09,677.02H768.66V529.92H668.09ZM718.38,677.02V808.74M718.38,529.92V257.09M693.23,808.74H743.52M693.23,257.09H743.52" style="vector-effect: none; stroke-width: 2px; stroke: rgb(88, 67, 36); stroke-opacity: 1; fill: rgb(88, 67, 36); fill-opacity: 0.5;" /></g><g class="trace boxes" style="opacity: 1;"><path class="box" d="M873.34,693.29H973.91M873.34,745.74H973.91V616.25H873.34ZM923.63,745.74V855M923.63,616.25V246.59M898.48,855H948.77M898.48,246.59H948.77" style="vector-effect: none; stroke-width: 2px; stroke: rgb(173, 138, 85); stroke-opacity: 1; fill: rgb(173, 138, 85); fill-opacity: 0.5;" /></g><g class="trace boxes" style="opacity: 1;"><path class="box" d="M1078.59,631.9H1179.16M1078.59,705.34H1179.16V541.35H1078.59ZM1128.88,705.34V828.68M1128.88,541.35V45M1103.73,828.68H1154.02M1103.73,45H1154.02" style="vector-effect: none; stroke-width: 2px; stroke: rgb(122, 93, 49); stroke-opacity: 1; fill: rgb(122, 93, 49); fill-opacity: 0.5;" /></g><g class="trace boxes" style="opacity: 1;"><path class="box" d="M1283.84,638.59H1384.41M1283.84,669.23H1384.41V567.65H1283.84ZM1334.13,669.23V825.72M1334.13,567.65V283.5M1308.98,825.72H1359.27M1308.98,283.5H1359.27" style="vector-effect: none; stroke-width: 2px; stroke: rgb(138, 138, 144); stroke-opacity: 1; fill: rgb(138, 138, 144); fill-opacity: 0.5;" /></g><g class="trace boxes" style="opacity: 1;"><path class="box" d="M1489.09,654.29H1589.66M1489.09,697.68H1589.66V547.28H1489.09ZM1539.38,697.68V819.84M1539.38,547.28V213.47M1514.23,819.84H1564.52M1514.23,213.47H1564.52" style="vector-effect: none; stroke-width: 2px; stroke: rgb(85, 85, 92); stroke-opacity: 1; fill: rgb(85, 85, 92); fill-opacity: 0.5;" /></g></g></g></g><g class="zerolinelayer-above" /><path class="xlines-above crisp" d="M79,1000.5H1722" style="fill: none; stroke-width: 1px; stroke: rgb(0, 0, 0); stroke-opacity: 0;" /><path class="ylines-above crisp" d="M79.5,100V1000" style="fill: none; stroke-width: 1px; stroke: rgb(0, 0, 0); stroke-opacity: 0;" /><g class="overlines-above" /><g class="xaxislayer-above"><g class="xtick"><text text-anchor="middle" x="0" y="1015.4" transform="translate(182.63,0)" style="font-family: 'Open Sans', verdana, arial, sans-serif; font-size: 12px; fill: rgb(0, 0, 0); fill-opacity: 0; white-space: pre;"><tspan class="line" dy="0em" x="0" y="1015.4">3-4 before</tspan><tspan class="line" dy="1.3em" x="0" y="1015.4">n=85</tspan></text></g><g class="xtick"><text text-anchor="middle" x="0" y="1015.4" transform="translate(387.88,0)" style="font-family: 'Open Sans', verdana, arial, sans-serif; font-size: 12px; fill: rgb(0, 0, 0); fill-opacity: 0; white-space: pre;"><tspan class="line" dy="0em" x="0" y="1015.4">2-3 before</tspan><tspan class="line" dy="1.3em" x="0" y="1015.4">n=168</tspan></text></g><g class="xtick"><text text-anchor="middle" x="0" y="1015.4" transform="translate(593.13,0)" style="font-family: 'Open Sans', verdana, arial, sans-serif; font-size: 12px; fill: rgb(0, 0, 0); fill-opacity: 0; white-space: pre;"><tspan class="line" dy="0em" x="0" y="1015.4">1-2 before</tspan><tspan class="line" dy="1.3em" x="0" y="1015.4">n=217</tspan></text></g><g class="xtick"><text text-anchor="middle" x="0" y="1015.4" transform="translate(798.38,0)" style="font-family: 'Open Sans', verdana, arial, sans-serif; font-size: 12px; fill: rgb(0, 0, 0); fill-opacity: 0; white-space: pre;"><tspan class="line" dy="0em" x="0" y="1015.4">0-1 before</tspan><tspan class="line" dy="1.3em" x="0" y="1015.4">n=145</tspan></text></g><g class="xtick"><text text-anchor="middle" x="0" y="1015.4" transform="translate(1003.63,0)" style="font-family: 'Open Sans', verdana, arial, sans-serif; font-size: 12px; fill: rgb(0, 0, 0); fill-opacity: 0; white-space: pre;"><tspan class="line" dy="0em" x="0" y="1015.4">0-1 after</tspan><tspan class="line" dy="1.3em" x="0" y="1015.4">n=480</tspan></text></g><g class="xtick"><text text-anchor="middle" x="0" y="1015.4" transform="translate(1208.88,0)" style="font-family: 'Open Sans', verdana, arial, sans-serif; font-size: 12px; fill: rgb(0, 0, 0); fill-opacity: 0; white-space: pre;"><tspan class="line" dy="0em" x="0" y="1015.4">1-2 after</tspan><tspan class="line" dy="1.3em" x="0" y="1015.4">n=137</tspan></text></g><g class="xtick"><text text-anchor="middle" x="0" y="1015.4" transform="translate(1414.13,0)" style="font-family: 'Open Sans', verdana, arial, sans-serif; font-size: 12px; fill: rgb(0, 0, 0); fill-opacity: 0; white-space: pre;"><tspan class="line" dy="0em" x="0" y="1015.4">2-3 after</tspan><tspan class="line" dy="1.3em" x="0" y="1015.4">n=98</tspan></text></g><g class="xtick"><text text-anchor="middle" x="0" y="1015.4" transform="translate(1619.38,0)" style="font-family: 'Open Sans', verdana, arial, sans-serif; font-size: 12px; fill: rgb(0, 0, 0); fill-opacity: 0; white-space: pre;"><tspan class="line" dy="0em" x="0" y="1015.4">3-4 after</tspan><tspan class="line" dy="1.3em" x="0" y="1015.4">n=72</tspan></text></g></g><g class="yaxislayer-above"><g class="ytick"><text text-anchor="end" x="76.6" y="4.199999999999999" transform="translate(0,977.9)" style="font-family: 'Open Sans', verdana, arial, sans-serif; font-size: 12px; fill: rgb(0, 0, 0); fill-opacity: 0; white-space: pre;">0.0%</text></g><g class="ytick"><text text-anchor="end" x="76.6" y="4.199999999999999" style="font-family: 'Open Sans', verdana, arial, sans-serif; font-size: 12px; fill: rgb(0, 0, 0); fill-opacity: 0; white-space: pre;" transform="translate(0,885.38)">2.0%</text></g><g class="ytick"><text text-anchor="end" x="76.6" y="4.199999999999999" style="font-family: 'Open Sans', verdana, arial, sans-serif; font-size: 12px; fill: rgb(0, 0, 0); fill-opacity: 0; white-space: pre;" transform="translate(0,792.87)">4.0%</text></g><g class="ytick"><text text-anchor="end" x="76.6" y="4.199999999999999" style="font-family: 'Open Sans', verdana, arial, sans-serif; font-size: 12px; fill: rgb(0, 0, 0); fill-opacity: 0; white-space: pre;" transform="translate(0,700.36)">6.0%</text></g><g class="ytick"><text text-anchor="end" x="76.6" y="4.199999999999999" style="font-family: 'Open Sans', verdana, arial, sans-serif; font-size: 12px; fill: rgb(0, 0, 0); fill-opacity: 0; white-space: pre;" transform="translate(0,607.8399999999999)">8.0%</text></g><g class="ytick"><text text-anchor="end" x="76.6" y="4.199999999999999" style="font-family: 'Open Sans', verdana, arial, sans-serif; font-size: 12px; fill: rgb(0, 0, 0); fill-opacity: 0; white-space: pre;" transform="translate(0,515.3299999999999)">10.0%</text></g><g class="ytick"><text text-anchor="end" x="76.6" y="4.199999999999999" style="font-family: 'Open Sans', verdana, arial, sans-serif; font-size: 12px; fill: rgb(0, 0, 0); fill-opacity: 0; white-space: pre;" transform="translate(0,422.82)">12.0%</text></g><g class="ytick"><text text-anchor="end" x="76.6" y="4.199999999999999" style="font-family: 'Open Sans', verdana, arial, sans-serif; font-size: 12px; fill: rgb(0, 0, 0); fill-opacity: 0; white-space: pre;" transform="translate(0,330.3)">14.0%</text></g><g class="ytick"><text text-anchor="end" x="76.6" y="4.199999999999999" style="font-family: 'Open Sans', verdana, arial, sans-serif; font-size: 12px; fill: rgb(0, 0, 0); fill-opacity: 0; white-space: pre;" transform="translate(0,237.79)">16.0%</text></g><g class="ytick"><text text-anchor="end" x="76.6" y="4.199999999999999" style="font-family: 'Open Sans', verdana, arial, sans-serif; font-size: 12px; fill: rgb(0, 0, 0); fill-opacity: 0; white-space: pre;" transform="translate(0,145.28)">18.0%</text></g></g><g class="overaxes-above" /></g></g><g class="polarlayer" /><g class="smithlayer" /><g class="ternarylayer" /><g class="geolayer" /><g class="funnelarealayer" /><g class="pielayer" /><g class="iciclelayer" /><g class="treemaplayer" /><g class="sunburstlayer" /><g class="glimages" /><defs id="topdefs-199b5d"><g class="clips" /></defs><g class="layer-above"><g class="imagelayer" /><g class="shapelayer"><g class="shape-group" data-index="0"><path data-index="0" fill-rule="evenodd" d="M901,1000L901,100" style="opacity: 1; stroke: rgb(0, 0, 0); stroke-opacity: 0; fill: rgb(0, 0, 0); fill-opacity: 0; stroke-dasharray: 3px, 3px; stroke-width: 2px;" /></g></g></g><g class="infolayer"><g class="g-gtitle"><text class="gtitle" x="96" y="50" text-anchor="start" dy="0em" style="opacity: 0; font-family: 'Open Sans', verdana, arial, sans-serif; font-size: 17px; fill: rgb(0, 0, 0); fill-opacity: 1; white-space: pre;">Engagement Rate Across the Match Cycle</text></g><g class="g-xtitle"><text class="xtitle" x="901" y="1059.3" text-anchor="middle" style="opacity: 0; font-family: 'Open Sans', verdana, arial, sans-serif; font-size: 14px; fill: rgb(0, 0, 0); fill-opacity: 1; white-space: pre;">Position in match cycle</text></g><g class="g-ytitle"><text class="ytitle" transform="rotate(-90,23.543359375,550)" x="23.543359375" y="550" text-anchor="middle" style="opacity: 0; font-family: 'Open Sans', verdana, arial, sans-serif; font-size: 14px; fill: rgb(0, 0, 0); fill-opacity: 1; white-space: pre;">Engagement Rate</text></g><g class="annotation" data-index="0" style="opacity: 1;"><g class="annotation-text-g" transform="rotate(0,901,89.5)"><g class="cursor-pointer" transform="translate(881,79)"><rect class="bg" x="0.5" y="0.5" width="40" height="20" style="stroke-width: 1px; stroke: rgb(0, 0, 0); stroke-opacity: 0; fill: rgb(0, 0, 0); fill-opacity: 0;" /><text class="annotation-text" text-anchor="middle" x="20.25" y="15" style="font-family: 'Open Sans', verdana, arial, sans-serif; font-size: 12px; fill: rgb(42, 63, 95); fill-opacity: 1; white-space: pre;">kickoff</text></g></g></g></g></svg>