<svg xmlns="http://www.w3.org/2000/svg" class="main-svg" width="1920" height="1080" style="" viewBox="0 0 1920 1080"><rect x="0" y="0" width="1920" height="1080" style="fill: rgb(0, 0, 0); fill-opacity: 0;" /><defs id="defs-1aed24"><g class="clips"></g><g class="gradients" /><g class="patterns" /></defs><g class="bglayer"><rect class="bg" x="80" y="100" width="1663" height="900" style="fill: rgb(0, 0, 0); fill-opacity: 0; stroke-width: 0;" /></g><g class="layer-below"><g class="imagelayer" /><g class="shapelayer" /></g><g class="cartesianlayer"><g class="subplot xy"><g class="layer-subplot"><g class="shapelayer" /><g class="imagelayer" /></g><g class="minor-gridlayer"><g class="x" /><g class="y" /></g><g class="gridlayer"><g class="x" /><g class="y"><path class="ygrid crisp" transform="translate(0,929.63)" d="M80,0h1663" style="stroke: rgb(235, 240, 248); stroke-opacity: 1; stroke-width: 1px;" /><path class="ygrid crisp" transform="translate(0,735.6)" d="M80,0h1663" style="stroke: rgb(235, 240, 248); stroke-opacity: 1; stroke-width: 1px;" /><path class="ygrid crisp" transform="translate(0,541.5799999999999)" d="M80,0h1663" style="stroke: rgb(235, 240, 248); stroke-opacity: 1; stroke-width: 1px;" /><path class="ygrid crisp" transform="translate(0,347.56)" d="M80,0h1663" style="stroke: rgb(235, 240, 248); stroke-opacity: 1; stroke-width: 1px;" /><path class="ygrid crisp" transform="translate(0,153.53)" d="M80,0h1663" style="stroke: rgb(235, 240, 248); stroke-opacity: 1; stroke-width: 1px;" /></g></g><g class="zerolinelayer" /><g class="layer-between"><g class="shapelayer" /><g class="imagelayer" /></g><path class="xlines-below" /><path class="ylines-below" /><g class="overlines-below" /><g class="xaxislayer-below" /><g class="yaxislayer-below" /><g class="overaxes-below" /><g class="overplot"><g class="xy" transform="translate(80,100)"><g class="boxlayer mlayer"><g class="trace boxes" style="opacity: 0;"><path class="box" d="M42.41,723.59H123.89M42.41,763.75H123.89V601.43H42.41ZM83.15,763.75V810.82M83.15,601.43V439.32M62.78,810.82H103.52M62.78,439.32H103.52" style="vector-effect: none; stroke-width: 2px; stroke: rgb(85, 85, 92); stroke-opacity: 1; fill: rgb(85, 85, 92); fill-opacity: 0.5;" /><g class="points"><path class="point" transform="translate(83.15,317.64)" d="M3,0A3,3 0 1,1 0,-3A3,3 0 0,1 3,0Z" style="opacity: 1; stroke-width: 0px; fill: rgb(85, 85, 92); fill-opacity: 1;" /></g></g><g class="trace boxes" style="opacity: 0;"><path class="box" d="M208.71,689.1H290.19M208.71,735.62H290.19V631.11H208.71ZM249.45,735.62V773.35M249.45,631.11V572.65M229.08,773.35H269.82M229.08,572.65H269.82" style="vector-effect: none; stroke-width: 2px; stroke: rgb(43, 33, 20); stroke-opacity: 1; fill: rgb(43, 33, 20); fill-opacity: 0.5;" /><g class="points" /></g><g class="trace boxes" style="opacity: 0;"><path class="box" d="M375.01,684.39H456.49M375.01,726.51H456.49V619.54H375.01ZM415.75,726.51V814.97M415.75,619.54V461.57M395.38,814.97H436.12M395.38,461.57H436.12" style="vector-effect: none; stroke-width: 2px; stroke: rgb(150, 115, 62); stroke-opacity: 1; fill: rgb(150, 115, 62); fill-opacity: 0.5;" /><g class="points"><path class="point" transform="translate(415.75,448.43)" d="M3,0A3,3 0 1,1 0,-3A3,3 0 0,1 3,0Z" style="opacity: 1; stroke-width: 0px; fill: rgb(150, 115, 62); fill-opacity: 1;" /><path class="point" transform="translate(415.75,437.08)" d="M3,0A3,3 0 1,1 0,-3A3,3 0 0,1 3,0Z" style="opacity: 1; stroke-width: 0px; fill: rgb(150, 115, 62); fill-opacity: 1;" /><path class="point" transform="translate(415.75,428.36)" d="M3,0A3,3 0 1,1 0,-3A3,3 0 0,1 3,0Z" style="opacity: 1; stroke-width: 0px; fill: rgb(150, 115, 62); fill-opacity: 1;" /><path class="point" transform="translate(415.75,414.42)" d="M3,0A3,3 0 1,1 0,-3A3,3 0 0,1 3,0Z" style="opacity: 1; stroke-width: 0px; fill: rgb(150, 115, 62); fill-opacity: 1;" /><path class="point" transform="translate(415.75,411.98)" d="M3,0A3,3 0 1,1 0,-3A3,3 0 0,1 3,0Z" style="opacity: 1; stroke-width: 0px; fill: rgb(150, 115, 62); fill-opacity: 1;" /><path class="point" transform="translate(415.75,390.76)" d="M3,0A3,3 0 1,1 0,-3A3,3 0 0,1 3,0Z" style="opacity: 1; stroke-width: 0px; fill: rgb(150, 115, 62); fill-opacity: 1;" /><path class="point" transform="translate(415.75,381.08)" d="M3,0A3,3 0 1,1 0,-3A3,3 0 0,1 3,0Z" style="opacity: 1; stroke-width: 0px; fill: rgb(150, 115, 62); fill-opacity: 1;" /><path class="point" transform="translate(415.75,351.2)" d="M3,0A3,3 0 1,1 0,-3A3,3 0 0,1 3,0Z" style="opacity: 1; stroke-width: 0px; fill: rgb(150, 115, 62); fill-opacity: 1;" /><path class="point" transform="translate(415.75,293.03)" d="M3,0A3,3 0 1,1 0,-3A3,3 0 0,1 3,0Z" style="opacity: 1; stroke-width: 0px; fill: rgb(150, 115, 62); fill-opacity: 1;" /></g></g><g class="trace boxes" style="opacity: 0;"><path class="box" d="M541.31,668.54H622.79M541.31,727.38H622.79V579.29H541.31ZM582.05,727.38V855M582.05,579.29V386.7M561.68,855H602.42M561.68,386.7H602.42" style="vector-effect: none; stroke-width: 2px; stroke: rgb(173, 138, 85); stroke-opacity: 1; fill: rgb(173, 138, 85); fill-opacity: 0.5;" /><g class="points"><path class="point" transform="translate(582.05,337.38)" d="M3,0A3,3 0 1,1 0,-3A3,3 0 0,1 3,0Z" style="opacity: 1; stroke-width: 0px; fill: rgb(173, 138, 85); fill-opacity: 1;" /><path class="point" transform="translate(582.05,292.03)" d="M3,0A3,3 0 1,1 0,-3A3,3 0 0,1 3,0Z" style="opacity: 1; stroke-width: 0px; fill: rgb(173, 138, 85); fill-opacity: 1;" /></g></g><g class="trace boxes" style="opacity: 0;"><path class="box" d="M707.61,647.73H789.09M707.61,716.14H789.09V540.01H707.61ZM748.35,716.14V846.35M748.35,540.01V284.51M727.98,846.35H768.72M727.98,284.51H768.72" style="vector-effect: none; stroke-width: 2px; stroke: rgb(122, 93, 49); stroke-opacity: 1; fill: rgb(122, 93, 49); fill-opacity: 0.5;" /><g class="points"><path class="point" transform="translate(748.35,166.56)" d="M3,0A3,3 0 1,1 0,-3A3,3 0 0,1 3,0Z" style="opacity: 1; stroke-width: 0px; fill: rgb(122, 93, 49); fill-opacity: 1;" /></g></g><g class="trace boxes" style="opacity: 0;"><path class="box" d="M873.91,620.74H955.39M873.91,687.23H955.39V549.95H873.91ZM914.65,687.23V715.38M914.65,549.95V509.6M894.28,715.38H935.02M894.28,509.6H935.02" style="vector-effect: none; stroke-width: 2px; stroke: rgb(88, 67, 36); stroke-opacity: 1; fill: rgb(88, 67, 36); fill-opacity: 0.5;" /><g class="points" /></g><g class="trace boxes" style="opacity: 0;"><path class="box" d="M1040.21,614.15H1121.69M1040.21,682.16H1121.69V557.02H1040.21ZM1080.95,682.16V731.35M1080.95,557.02V379.76M1060.58,731.35H1101.32M1060.58,379.76H1101.32" style="vector-effect: none; stroke-width: 2px; stroke: rgb(138, 138, 144); stroke-opacity: 1; fill: rgb(138, 138, 144); fill-opacity: 0.5;" /><g class="points" /></g><g class="trace boxes" style="opacity: 0;"><path class="box" d="M1206.51,575.69H1287.99M1206.51,644.91H1287.99V482.93H1206.51ZM1247.25,644.91V763.19M1247.25,482.93V257.02M1226.88,763.19H1267.62M1226.88,257.02H1267.62" style="vector-effect: none; stroke-width: 2px; stroke: rgb(195, 158, 109); stroke-opacity: 1; fill: rgb(195, 158, 109); fill-opacity: 0.5;" /><g class="points"><path class="point" transform="translate(1247.25,234.91)" d="M3,0A3,3 0 1,1 0,-3A3,3 0 0,1 3,0Z" style="opacity: 1; stroke-width: 0px; fill: rgb(195, 158, 109); fill-opacity: 1;" /><path class="point" transform="translate(1247.25,220.7)" d="M3,0A3,3 0 1,1 0,-3A3,3 0 0,1 3,0Z" style="opacity: 1; stroke-width: 0px; fill: rgb(195, 158, 109); fill-opacity: 1;" /><path class="point" transform="translate(1247.25,207.41)" d="M3,0A3,3 0 1,1 0,-3A3,3 0 0,1 3,0Z" style="opacity: 1; stroke-width: 0px; fill: rgb(195, 158, 109); fill-opacity: 1;" /><path class="point" transform="translate(1247.25,204.66)" d="M3,0A3,3 0 1,1 0,-3A3,3 0 0,1 3,0Z" style="opacity: 1; stroke-width: 0px; fill: rgb(195, 158, 109); fill-opacity: 1;" /><path class="point" transform="translate(1247.25,193.43)" d="M3,0A3,3 0 1,1 0,-3A3,3 0 0,1 3,0Z" style="opacity: 1; stroke-width: 0px; fill: rgb(195, 158, 109); fill-opacity: 1;" /><path class="point" transform="translate(1247.25,190.9)" d="M3,0A3,3 0 1,1 0,-3A3,3 0 0,1 3,0Z" style="opacity: 1; stroke-width: 0px; fill: rgb(195, 158, 109); fill-opacity: 1;" /><path class="point" transform="translate(1247.25,190.17)" d="M3,0A3,3 0 1,1 0,-3A3,3 0 0,1 3,0Z" style="opacity: 1; stroke-width: 0px; fill: rgb(195, 158, 109); fill-opacity: 1;" /><path class="point" transform="translate(1247.25,177.94)" d="M3,0A3,3 0 1,1 0,-3A3,3 0 0,1 3,0Z" style="opacity: 1; stroke-width: 0px; fill: rgb(195, 158, 109); fill-opacity: 1;" /><path class="point" transform="translate(1247.25,141.29)" d="M3,0A3,3 0 1,1 0,-3A3,3 0 0,1 3,0Z" style="opacity: 1; stroke-width: 0px; fill: rgb(195, 158, 109); fill-opacity: 1;" /><path class="point" transform="translate(1247.25,134.13)" d="M3,0A3,3 0 1,1 0,-3A3,3 0 0,1 3,0Z" style="opacity: 1; stroke-width: 0px; fill: rgb(195, 158, 109); fill-opacity: 1;" /><path class="point" transform="translate(1247.25,126.98)" d="M3,0A3,3 0 1,1 0,-3A3,3 0 0,1 3,0Z" style="opacity: 1; stroke-width: 0px; fill: rgb(195, 158, 109); fill-opacity: 1;" /><path class="point" transform="translate(1247.25,106.02)" d="M3,0A3,3 0 1,1 0,-3A3,3 0 0,1 3,0Z" style="opacity: 1; stroke-width: 0px; fill: rgb(195, 158, 109); fill-opacity: 1;" /><path class="point" transform="translate(1247.25,99.09)" d="M3,0A3,3 0 1,1 0,-3A3,3 0 0,1 3,0Z" style="opacity: 1; stroke-width: 0px; fill: rgb(195, 158, 109); fill-opacity: 1;" /><path class="point" transform="translate(1247.25,45)" d="M3,0A3,3 0 1,1 0,-3A3,3 0 0,1 3,0Z" style="opacity: 1; stroke-width: 0px; fill: rgb(195, 158, 109); fill-opacity: 1;" /></g></g><g class="trace boxes" style="opacity: 0;"><path class="box" d="M1372.81,573.49H1454.29M1372.81,638.17H1454.29V480.34H1372.81ZM1413.55,638.17V812.87M1413.55,480.34V289.22M1393.18,812.87H1433.92M1393.18,289.22H1433.92" style="vector-effect: none; stroke-width: 2px; stroke: rgb(166, 166, 172); stroke-opacity: 1; fill: rgb(166, 166, 172); fill-opacity: 0.5;" /><g class="points" /></g><g class="trace boxes" style="opacity: 0;"><path class="box" d="M1539.11,499.83H1620.59M1539.11,640.46H1620.59V313.54H1539.11ZM1579.85,640.46V762.05M1579.85,313.54V114.68M1559.48,762.05H1600.22M1559.48,114.68H1600.22" style="vector-effect: none; stroke-width: 2px; stroke: rgb(201, 201, 206); stroke-opacity: 1; fill: rgb(201, 201, 206); fill-opacity: 0.5;" /><g class="points" /></g></g></g></g><g class="zerolinelayer-above" /><path class="xlines-above crisp" d="M0,0" style="fill: none;" /><path class="ylines-above crisp" d="M0,0" style="fill: none;" /><g class="overlines-above" /><g class="xaxislayer-above"><g class="xtick"><text text-anchor="middle" x="0" y="1013" transform="translate(163.15,0)" style="font-family: 'Open Sans', verdana, arial, sans-serif; font-size: 12px; fill: rgb(42, 63, 95); fill-opacity: 1; white-space: pre;"><tspan class="line" dy="0em" x="0" y="1013">full_match</tspan><tspan class="line" dy="1.3em" x="0" y="1013">n=9</tspan></text></g><g class="xtick"><text text-anchor="middle" x="0" y="1013" transform="translate(329.45,0)" style="font-family: 'Open Sans', verdana, arial, sans-serif; font-size: 12px; fill: rgb(42, 63, 95); fill-opacity: 1; white-space: pre;"><tspan class="line" dy="0em" x="0" y="1013">community</tspan><tspan class="line" dy="1.3em" x="0" y="1013">n=9</tspan></text></g><g class="xtick"><text text-anchor="middle" x="0" y="1013" transform="translate(495.75,0)" style="font-family: 'Open Sans', verdana, arial, sans-serif; font-size: 12px; fill: rgb(42, 63, 95); fill-opacity: 1; white-space: pre;"><tspan class="line" dy="0em" x="0" y="1013">press_interview</tspan><tspan class="line" dy="1.3em" x="0" y="1013">n=338</tspan></text></g><g class="xtick"><text text-anchor="middle" x="0" y="1013" transform="translate(662.05,0)" style="font-family: 'Open Sans', verdana, arial, sans-serif; font-size: 12px; fill: rgb(42, 63, 95); fill-opacity: 1; white-space: pre;"><tspan class="line" dy="0em" x="0" y="1013">podcast</tspan><tspan class="line" dy="1.3em" x="0" y="1013">n=372</tspan></text></g><g class="xtick"><text text-anchor="middle" x="0" y="1013" transform="translate(828.35,0)" style="font-family: 'Open Sans', verdana, arial, sans-serif; font-size: 12px; fill: rgb(42, 63, 95); fill-opacity: 1; white-space: pre;"><tspan class="line" dy="0em" x="0" y="1013">show</tspan><tspan class="line" dy="1.3em" x="0" y="1013">n=148</tspan></text></g><g class="xtick"><text text-anchor="middle" x="0" y="1013" transform="translate(994.65,0)" style="font-family: 'Open Sans', verdana, arial, sans-serif; font-size: 12px; fill: rgb(42, 63, 95); fill-opacity: 1; white-space: pre;"><tspan class="line" dy="0em" x="0" y="1013">feature</tspan><tspan class="line" dy="1.3em" x="0" y="1013">n=20</tspan></text></g><g class="xtick"><text text-anchor="middle" x="0" y="1013" transform="translate(1160.95,0)" style="font-family: 'Open Sans', verdana, arial, sans-serif; font-size: 12px; fill: rgb(42, 63, 95); fill-opacity: 1; white-space: pre;"><tspan class="line" dy="0em" x="0" y="1013">match_preview</tspan><tspan class="line" dy="1.3em" x="0" y="1013">n=72</tspan></text></g><g class="xtick"><text text-anchor="middle" x="0" y="1013" transform="translate(1327.25,0)" style="font-family: 'Open Sans', verdana, arial, sans-serif; font-size: 12px; fill: rgb(42, 63, 95); fill-opacity: 1; white-space: pre;"><tspan class="line" dy="0em" x="0" y="1013">highlights</tspan><tspan class="line" dy="1.3em" x="0" y="1013">n=264</tspan></text></g><g class="xtick"><text text-anchor="middle" x="0" y="1013" transform="translate(1493.55,0)" style="font-family: 'Open Sans', verdana, arial, sans-serif; font-size: 12px; fill: rgb(42, 63, 95); fill-opacity: 1; white-space: pre;"><tspan class="line" dy="0em" x="0" y="1013">no_playlist</tspan><tspan class="line" dy="1.3em" x="0" y="1013">n=96</tspan></text></g><g class="xtick"><text text-anchor="middle" x="0" y="1013" transform="translate(1659.85,0)" style="font-family: 'Open Sans', verdana, arial, sans-serif; font-size: 12px; fill: rgb(42, 63, 95); fill-opacity: 1; white-space: pre;"><tspan class="line" dy="0em" x="0" y="1013">unclassified</tspan><tspan class="line" dy="1.3em" x="0" y="1013">n=96</tspan></text></g></g><g class="yaxislayer-above"><g class="ytick"><text text-anchor="end" x="79" y="4.199999999999999" transform="translate(0,929.63)" style="font-family: 'Open Sans', verdana, arial, sans-serif; font-size: 12px; fill: rgb(42, 63, 95); fill-opacity: 1; white-space: pre;">100</text></g><g class="ytick"><text text-anchor="end" x="79" y="4.199999999999999" style="font-family: 'Open Sans', verdana, arial, sans-serif; font-size: 12px; fill: rgb(42, 63, 95); fill-opacity: 1; white-space: pre;" transform="translate(0,735.6)">1K</text></g><g class="ytick"><text text-anchor="end" x="79" y="4.199999999999999" style="font-family: 'Open Sans', verdana, arial, sans-serif; font-size: 12px; fill: rgb(42, 63, 95); fill-opacity: 1; white-space: pre;" transform="translate(0,541.5799999999999)">10K</text></g><g class="ytick"><text text-anchor="end" x="79" y="4.199999999999999" style="font-family: 'Open Sans', verdana, arial, sans-serif; font-size: 12px; fill: rgb(42, 63, 95); fill-opacity: 1; white-space: pre;" transform="translate(0,347.56)">100K</text></g><g class="ytick"><text text-anchor="end" x="79" y="4.199999999999999" style="font-family: 'Open Sans', verdana, arial, sans-serif; font-size: 12px; fill: rgb(42, 63, 95); fill-opacity: 1; white-space: pre;" transform="translate(0,153.53)">1M</text></g></g><g class="overaxes-above" /></g></g><g class="polarlayer" /><g class="smithlayer" /><g class="ternarylayer" /><g class="geolayer" /><g class="funnelarealayer" /><g class="pielayer" /><g class="iciclelayer" /><g class="treemaplayer" /><g class="sunburstlayer" /><g class="glimages" /><defs id="topdefs-1aed24"><g class="clips" /></defs><g class="layer-above"><g class="imagelayer" /><g class="shapelayer" /></g><g class="infolayer"><g class="g-gtitle"><text class="gtitle" x="96" y="50" text-anchor="start" dy="0em" style="opacity: 1; font-family: 'Open Sans', verdana, arial, sans-serif; font-size: 17px; fill: rgb(42, 63, 95); fill-opacity: 1; white-space: pre;">Views (log 10) by Content Type - Horizontal / Live</text></g><g class="g-xtitle"><text class="xtitle" x="911.5" y="1056.899609375" text-anchor="middle" style="opacity: 1; font-family: 'Open Sans', verdana, arial, sans-serif; font-size: 14px; fill: rgb(42, 63, 95); fill-opacity: 1; white-space: pre;">Content Type</text></g><g class="g-ytitle"><text class="ytitle" transform="rotate(-90,31.646875,550)" x="31.646875" y="550" text-anchor="middle" style="opacity: 1; font-family: 'Open Sans', verdana, arial, sans-serif; font-size: 14px; fill: rgb(42, 63, 95); fill-opacity: 1; white-space: pre;">Views</text></g></g></svg>